<svg width="86" height="90" viewBox="0 0 86 90" fill="none" xmlns="http://www.w3.org/2000/svg">
<path d="M81.8796 26.8969C78.4798 18.0929 73.1335 10.5256 64.7603 5.89008C60.8706 3.73581 56.6375 2.25079 52.318 1.23598C50.1145 0.718741 47.8848 0.321786 45.6409 0.0232502C43.678 -0.238105 40.5526 1.78384 43.3882 2.08566C43.8715 2.13706 44.3483 2.20048 44.824 2.26281C47.3107 3.37822 52.435 5.76651 52.902 4.57893C55.4422 4.97588 56.117 6.62603 59.5386 6.39857C60.7776 6.97268 61.9772 7.596 63.1309 8.2729C63.1134 8.72453 63.8997 9.06462 64.851 9.34347C65.6668 9.87821 66.4629 10.437 67.2317 11.0264C67.1595 11.0625 67.1005 11.0898 67.1005 11.0898C67.411 11.5141 68.2027 12.0215 69.1038 12.5628C70.4237 13.7132 71.6627 14.9522 72.8164 16.2765C72.859 17.3657 74.3287 18.4887 74.9695 18.9808C75.1773 19.2684 75.3884 19.5538 75.5896 19.848C76.4622 22.0821 77.7285 28.0014 79.7483 27.5859C79.9112 27.9828 80.0687 28.3885 80.2229 28.7942C80.2491 29.7543 79.8992 30.7101 80.2962 32.0584C81.0256 31.6494 81.0157 31.9524 81.3416 32.112C81.3645 32.1897 81.3875 32.2673 81.4094 32.3438C80.1299 33.0098 81.5975 34.918 81.522 36.1931C81.7528 35.9427 81.9857 35.6923 82.2153 35.4418C82.3083 35.8497 82.3925 36.262 82.4756 36.6764C82.2033 36.5386 81.9004 36.4643 81.5625 36.4894C81.7943 37.5119 81.9682 38.5453 82.0841 39.5874C82.4307 39.349 82.7184 39.3042 82.9611 39.4114C82.9906 39.6027 83.0125 39.7941 83.0377 39.9833C82.7588 40.0872 82.4679 40.1058 82.1607 40.0325C81.5286 42.7434 81.8643 43.5821 83.1634 42.5465C83.217 42.5542 83.2618 42.5389 83.311 42.5367C83.3438 42.9818 83.3624 43.4236 83.3799 43.8653C83.1328 43.7112 82.8386 43.5548 82.4745 43.3929C82.4734 44.2951 81.8227 47.24 83.3909 46.6889C83.3898 46.7107 83.3898 46.7304 83.3887 46.7512C82.4275 47.9125 82.6965 48.7721 83.2203 49.4129C83.147 50.1368 83.0497 50.8531 82.9392 51.566C81.9966 51.8941 81.1272 52.3884 81.9419 53.8231C82.1202 53.5639 82.3509 53.3912 82.6287 53.3026C82.4154 54.3535 82.1617 55.3901 81.8698 56.4104C80.9249 57.5532 80.4 59.0305 79.7199 60.7441C79.9167 60.825 80.0949 60.8983 80.2623 60.9672C80.1857 61.1487 80.1124 61.3324 80.0326 61.5107C80.0053 61.4964 79.9845 61.4822 79.9561 61.4691C79.9572 61.5511 79.9484 61.6299 79.9462 61.7108C79.4498 62.8262 78.9008 63.9132 78.3114 64.9761C78.2108 65.0559 78.1113 65.1368 77.9997 65.2112C78.0588 65.2199 78.1146 65.2178 78.1725 65.2243C77.8729 65.7569 77.5623 66.2851 77.2386 66.8023C77.1741 66.6929 77.0987 66.5825 76.997 66.4633C76.2435 67.6738 75.5907 69.0309 74.8241 70.2874C69.7873 76.8508 62.933 81.9237 55.3449 84.7811C54.9534 84.9211 54.5729 85.0633 54.2864 85.1683C53.3569 85.5105 52.4044 85.7839 51.4487 86.0398C50.7422 86.0835 50.1058 86.159 49.8849 86.1907C50.0773 86.2115 50.2108 86.2596 50.3158 86.3219C48.5322 86.744 46.7224 87.0426 44.8984 87.2121C44.6283 86.9288 44.1219 86.8162 42.8666 86.8567C42.9858 86.9463 43.0853 87.1224 43.1618 87.3345C41.6527 87.4045 40.1393 87.3838 38.6258 87.2678C37.6198 86.6216 33.484 85.984 32.8749 86.3493C32.4648 86.2487 32.0559 86.1437 31.6469 86.0278C31.1876 84.8719 30.2756 83.8549 29.1973 85.235C28.995 85.1617 28.7938 85.0851 28.5926 85.0075C27.3329 83.9927 24.6417 82.1293 23.6269 82.5755C23.5984 82.5875 23.5547 82.5809 23.5 82.5656C23.254 82.4213 23.0068 82.2758 22.7608 82.126C21.6705 81.3409 19.9438 79.7848 19.6037 79.483C18.8787 78.841 18.3276 78.642 17.8333 78.5502C16.8513 77.7136 15.8857 76.8202 14.9442 75.8557C14.0311 74.9196 13.1847 73.9311 12.3667 72.9217C13.2481 72.3673 12.604 72.1388 11.6789 72.0611C11.3224 71.5975 10.9845 71.1229 10.6488 70.645C10.8259 70.7128 11.0129 70.7992 11.2251 70.9238C10.9265 70.5149 10.5296 70.1835 10.0976 69.8576C8.45405 67.4114 7.0554 64.8131 5.92906 62.1001C5.21388 58.2388 4.49653 53.5038 3.07165 52.1598C2.87372 51.004 2.71845 49.8415 2.608 48.6736C2.62221 48.608 2.61674 48.5468 2.59487 48.4899C2.35101 45.7703 2.34554 43.0255 2.58721 40.296C2.74577 39.4201 2.96448 38.8176 3.27833 38.7607C3.97819 31.7424 4.47576 29.1638 8.01226 22.4769C7.96852 22.4943 7.94335 22.4933 7.90399 22.5064C7.99584 22.3358 8.09099 22.1663 8.18503 21.9968C8.19159 22.0362 8.19707 22.0668 8.20253 22.1105C9.41636 19.8294 11.0315 17.7604 12.8063 15.8959C12.6554 15.885 12.5209 15.8435 12.3788 15.8139C12.5712 15.581 12.7691 15.3546 12.9671 15.1261C13.6155 15.0616 14.1251 14.5126 15.2821 13.4508C16.7627 12.0915 18.4993 11.5459 17.7141 10.542C17.9153 10.3823 18.1242 10.2238 18.3352 10.0641C18.4162 10.191 18.5015 10.3266 18.5922 10.4654C19.6825 9.55234 22.2709 8.47301 22.3759 7.29199C22.5519 7.18264 22.7291 7.07438 22.9073 6.96721C22.9532 7.06344 22.9762 7.18373 22.9423 7.35651C23.313 7.13343 23.6859 6.91144 24.0588 6.68945C23.9637 6.60853 23.8707 6.52761 23.7756 6.4456C23.9527 6.34171 24.1321 6.24001 24.3103 6.13722C24.3399 6.25313 24.3639 6.37233 24.3683 6.50683C28.9436 4.09668 33.9838 4.02341 38.3885 1.75104C39.0403 1.39017 38.2496 1.13319 37.0577 0.954945C37.6362 0.851059 38.1994 0.767949 38.7253 0.734049C38.0605 0.776697 37.4033 0.836843 36.7537 0.91011C35.004 0.679374 32.6223 0.600639 32.315 0.641099C30.8573 0.831375 29.8579 1.17803 29.0508 1.60997C29.5517 1.57389 30.0514 1.53671 30.5533 1.49953C29.8185 2.16768 29.2761 2.32077 28.9251 1.96975C28.8671 1.91288 28.819 1.84618 28.7742 1.76744C27.9617 2.24969 27.3274 2.82052 26.5805 3.40884C25.2891 3.91952 24.0446 4.498 22.8439 5.13444C22.6307 5.04587 22.3168 4.97041 22.4732 4.47832C21.4945 5.00213 16.5418 8.1373 16.801 8.28274C16.9475 8.36694 18.4479 7.27012 18.7606 7.20123C16.8732 8.46973 10.7035 11.8783 10.3852 14.1703C10.7155 14.3431 11.0031 14.4897 11.2623 14.6154C11.1507 14.7488 11.0446 14.8866 10.9353 15.0222C10.7297 14.809 10.5372 14.5684 10.371 14.2775C9.04018 18.4417 4.20894 23.2423 2.51396 29.0293C1.92345 31.0502 -0.978809 39.8761 0.339997 41.4825C0.25142 41.3776 0.529185 40.751 0.783979 40.0741C0.764296 40.7291 0.756637 41.5317 0.759918 42.4252C0.605729 45.182 0.671344 47.9563 0.967693 50.7054C1.07923 53.4327 1.21374 55.657 1.30669 56.1283C1.49368 55.9992 1.63584 55.8472 1.75613 55.6821C2.1323 57.4591 2.61346 59.2131 3.18866 60.9366C3.28161 61.4243 3.45876 61.8726 3.47189 61.9054C3.44345 61.7567 3.40846 61.6189 3.37347 61.48C3.41831 61.608 3.45877 61.737 3.50361 61.8639C3.92352 63.5774 4.49325 65.1193 5.22592 66.0051C5.6699 66.9423 6.14776 67.8641 6.65954 68.7707C7.10789 71.7298 11.9282 76.2778 13.1661 77.4872C14.9748 79.2544 16.3811 80.5841 17.7786 82.8565C18.4424 83.9446 20.7487 83.7062 21.582 84.2825C20.8209 83.7565 20.3091 83.4262 19.9646 83.1354C20.0073 83.1572 20.0488 83.1824 20.0948 83.1966C21.1489 83.8844 22.2381 84.4968 23.3251 85.0939C24.1376 85.5401 25.0354 85.9654 25.7538 86.2782C25.8052 86.3001 25.8577 86.3219 25.908 86.3449C26.4056 86.5581 26.7959 86.7222 26.9578 86.8064C27.4882 87.0863 27.9081 87.2263 28.2493 87.2711C41.4811 92.0783 56.6834 89.6736 68.2847 80.7985C85.0049 68.0128 89.284 46.0754 81.8796 26.8969ZM25.6805 5.80697C25.5679 5.74026 25.4804 5.68449 25.3328 5.57842C25.4695 5.48984 25.616 5.4122 25.7636 5.33237C25.5395 5.51609 25.8927 5.91304 25.6805 5.80697ZM19.6333 7.04376C19.5021 7.13234 19.3763 7.2242 19.2462 7.31277C19.1412 7.26684 19.0384 7.21872 18.9378 7.16733C19.1696 7.12687 19.4015 7.08531 19.6333 7.04376ZM12.3405 72.8933C12.1797 72.6954 12.019 72.4963 11.8615 72.2962C12.0376 72.329 12.2038 72.5018 12.3405 72.8933ZM1.2028 52.7219C1.21483 52.7438 1.22685 52.7667 1.23779 52.7886C1.22685 52.7733 1.21592 52.7547 1.2028 52.7219ZM76.6448 22.3544C76.752 22.1849 76.8373 22.0504 76.9149 21.9323C76.9948 22.0646 77.0735 22.1991 77.1523 22.3347C76.9871 22.3194 76.8187 22.3205 76.6448 22.3544Z" fill="#86CA00"/>
<path d="M26.0097 39.1008C26.025 39.1226 26.2787 39.3326 26.6057 39.5972C26.7085 39.7799 26.8014 39.969 26.8878 40.1637C26.7085 40.1418 26.808 40.2162 26.9359 40.2676C27.5833 41.7482 27.93 43.4421 29.2269 43.9911C29.3242 44.0337 29.4084 44.0556 29.497 44.0862C29.5998 44.1792 29.6971 44.2677 29.8152 44.3694C29.824 44.3869 29.801 44.3016 29.7595 44.1704C31.9695 44.7237 31.1646 41.5372 30.7436 40.4491C28.9633 35.8562 23.2901 32.0103 18.3692 34.5692C16.158 35.7196 14.0716 37.8115 13.2831 40.2184C13.1738 40.5497 13.1749 41.9604 13.4056 42.997C13.3772 43.0889 13.3629 43.1698 13.3411 43.2551C13.3619 43.2671 13.3739 43.2726 13.4001 43.2868L13.3586 43.441C13.3487 43.4323 13.3301 43.4126 13.3105 43.3885C13.1814 44.0556 13.3345 44.4952 13.9655 44.4832C12.4214 44.5958 14.4138 44.5171 13.539 44.9162C14.4116 44.5171 14.93 44.7751 15.2909 44.3224C14.9508 44.7511 16.1591 41.9188 17.0558 40.3212C17.2877 39.9789 17.5195 39.6475 17.7568 39.3381C17.8432 39.3293 17.9132 39.3282 17.9219 39.3665C17.8979 39.2779 17.8421 39.2779 17.7732 39.3173C17.8563 39.2079 17.9416 39.1062 18.0269 39.0024C18.5485 38.8504 19.4813 38.0947 19.7448 37.9329C17.7021 39.1434 20.9313 37.1783 20.5092 37.1947C20.6131 37.1915 22.8909 37.7743 23.4366 37.9307C24.2174 37.9733 24.2119 37.829 23.464 37.5151C23.4115 37.7656 23.3491 37.7754 23.2748 37.5469C23.3568 37.4637 23.4257 37.4124 23.4957 37.3544C23.7024 37.4266 23.9101 37.5031 24.1299 37.6004C24.0556 37.9132 24.3738 38.2642 24.7784 38.5551C25.1939 38.8536 25.6838 39.0855 25.9015 39.1358C25.9463 39.2014 25.9791 39.2637 25.9616 39.2943C26.0042 39.2265 25.9813 39.1806 25.9343 39.1412C25.9988 39.1489 26.0316 39.1401 26.0097 39.1008ZM14.0978 44.2798C14.0978 44.2798 14.1066 44.201 14.123 44.1409C14.17 44.1409 14.217 44.1321 14.2673 44.1157C14.4368 44.2579 14.3723 44.2973 14.0978 44.2798ZM15.3062 42.9642C15.3576 42.8899 15.4101 42.8133 15.4615 42.739C15.4276 42.845 15.3773 42.9281 15.3062 42.9642ZM22.3453 37.4659C22.3442 37.4539 22.4207 36.7169 22.3453 37.4659V37.4659ZM22.95 37.5654C23.0451 37.338 23.0965 37.3478 23.09 37.5884L22.95 37.5654ZM24.5367 37.7962C24.5553 37.806 24.5761 37.8159 24.5958 37.8257C24.528 37.8738 24.5159 37.853 24.5367 37.7962ZM25.1228 38.5824C24.4788 38.4676 24.8123 38.3003 25.1228 38.5824V38.5824ZM25.4892 38.647C25.51 38.6513 25.5122 38.5879 25.4968 38.624C25.5811 38.3703 25.6773 38.6907 25.4892 38.647Z" fill="#86CA00"/>
<path d="M25.3087 39.3593C25.2726 39.3353 24.8472 39.1887 24.7106 39.4512C24.4897 39.8755 25.3317 39.3363 25.3087 39.3593Z" fill="#86CA00"/>
<path d="M22.4437 38.3891C22.2863 39.253 23.1513 38.1955 23.1425 38.225C23.0605 38.2163 22.4918 38.0796 22.4437 38.3891Z" fill="#86CA00"/>
<path d="M18.2303 39.6968C18.3648 39.757 18.4074 39.4497 18.2073 39.3906C18.2073 39.3906 18.0662 39.6312 18.2303 39.6968Z" fill="#86CA00"/>
<path d="M55.1809 43.4369C53.5526 43.812 55.7375 43.403 54.7916 43.8962C55.6686 43.4391 56.1837 43.6458 56.4768 43.0771C56.1312 43.7508 57.8262 38.5707 58.4112 37.8992C58.3172 37.8938 58.2045 37.8905 58.1203 37.8708C58.2144 37.7265 58.3227 37.5865 58.4397 37.452C58.5632 37.5898 59.2161 37.5012 59.8 37.3754C58.2712 38.9064 62.3972 36.1682 61.6612 36.1222C62.0002 36.1419 64.0954 36.7696 64.7723 36.9697C65.0785 37.0682 66.0474 36.9282 64.7527 36.5411C64.698 36.7882 64.6313 36.8002 64.5514 36.5772C64.6236 36.5072 64.6827 36.4656 64.7439 36.4142C65.0096 36.5126 65.2721 36.6198 65.5269 36.7423C65.6625 38.0392 66.7363 38.0731 67.3717 38.1169C67.4143 38.1715 67.4668 38.2186 67.5073 38.2732C67.4417 38.3465 67.5521 38.4526 67.5773 38.4766C67.5871 38.4537 67.5915 38.4416 67.5969 38.4209C67.808 38.7424 67.9808 39.0912 68.1229 39.4564C67.8911 39.3974 68.0912 39.6609 68.2323 39.7255C68.3067 39.9398 68.3679 40.1607 68.4269 40.3827C68.3712 40.3444 68.3242 40.3083 68.3242 40.2766C68.3242 40.3302 68.3821 40.3936 68.4466 40.4559C68.6653 41.3067 68.7911 42.1925 68.9212 43.0028C69.2908 45.2839 72.9968 44.2396 72.3899 42.0481C70.8918 36.6307 67.2973 32.4523 61.2796 32.846C58.8891 33.0024 56.8792 34.2435 55.4477 36.1277C55.0027 36.7128 54.5467 39.2301 54.5828 41.0322C54.4056 41.4893 54.2864 41.9071 54.2383 42.2668C54.2591 42.257 54.3148 42.2668 54.4472 42.3182L54.4318 42.479C54.3979 42.456 54.2613 42.3478 54.2339 42.2931C54.1421 43.0553 54.3804 43.5342 55.1809 43.4369ZM55.2892 43.2116C55.2957 43.1963 55.2564 42.7884 55.4652 43.0465C55.6205 43.1417 55.5626 43.1931 55.2892 43.2116ZM59.5748 36.9555C59.4217 37.02 59.5168 36.4919 59.5748 36.9555V36.9555ZM59.7344 36.493C59.8405 36.6111 59.8503 36.6931 59.7738 36.7346C59.7115 36.6603 59.6983 36.5804 59.7344 36.493ZM64.2135 36.5772C64.3141 36.3552 64.3677 36.3672 64.3579 36.6122L64.2135 36.5772ZM62.2069 35.9626C62.1905 35.9648 62.1807 35.9385 62.1675 35.9265C62.1883 35.9265 62.2091 35.9276 62.2069 35.9626ZM66.3962 37.6313C66.4105 37.6368 66.4291 37.6521 66.4575 37.6805C65.8079 37.4957 66.1469 37.4345 66.3962 37.6313ZM66.8183 37.7899C66.8391 37.7965 66.8446 37.7308 66.8282 37.768C66.9266 37.5165 67.0064 37.8544 66.8183 37.7899Z" fill="#86CA00"/>
<path d="M67.7587 38.9484C67.7653 38.9101 67.54 38.7067 67.3519 38.9342C67.1114 39.2108 67.7358 39.0293 67.7587 38.9484Z" fill="#86CA00"/>
<path d="M58.8562 38.3131C58.9699 38.3841 59.041 38.1173 58.8617 38.0156C58.8617 38.0156 58.7086 38.2245 58.8562 38.3131Z" fill="#86CA00"/>
<path d="M60.8072 55.6764C61.0499 55.4642 61.0937 55.2258 60.8706 54.9601C60.4376 54.4439 58.5195 54.269 56.0897 54.2558C56.1258 54.2099 56.1706 54.1738 56.2034 54.1246C56.0656 54.1541 55.9639 54.2023 55.8797 54.2548C54.9415 54.2526 53.9354 54.2723 52.9118 54.3062C52.8408 54.1093 52.6997 54.1815 52.6188 54.3149C48.7159 54.4516 44.6491 54.7545 43.3685 54.6823C42.8994 54.6572 42.4303 54.6331 41.9612 54.6091C42.0246 54.5861 42.0716 54.5566 42.0749 54.5052C41.9141 54.5445 41.7501 54.5697 41.585 54.5883C41.4045 54.5795 41.2252 54.5675 41.0459 54.5609C40.1295 54.3882 38.8982 53.9912 38.5931 53.8195C38.4356 54.2941 38.0966 54.293 38.5285 53.7812C38.0627 53.8283 37.4077 53.8753 36.6411 53.9059C36.6444 53.8753 36.652 53.8425 36.6367 53.8162C36.6105 53.7692 36.5066 53.8272 36.4279 53.9136C34.0527 54 30.7524 53.9748 28.9448 54.4461C28.9382 54.4866 28.7578 54.4975 28.7578 54.4975C27.9868 54.7283 27.5407 55.064 27.6467 55.5648C27.5593 55.2849 27.4105 55.0454 27.1995 54.8453C27.3438 55.4598 27.3198 55.6053 27.1295 55.286C27.2629 55.5265 27.3395 55.7048 27.3778 55.8382C27.3165 55.8612 27.2586 55.8808 27.2028 55.9038C26.7577 55.2116 26.4351 54.8846 26.5806 55.6764C26.609 55.836 26.6527 55.9891 26.6855 56.1477C26.6013 56.1575 26.5598 56.1345 26.5029 56.1225C26.5314 56.1127 26.2448 57.8295 26.2394 57.6425C26.2755 58.8148 32.3555 69.3248 34.3327 69.164C34.524 69.1455 34.1314 68.7354 33.8854 68.4368C35.179 69.5129 36.6116 70.4205 38.1611 71.1357C38.0496 71.1171 37.9435 71.0974 37.8287 71.0799C40.3383 72.2227 39.9206 72.0182 38.7363 71.3938C40.3493 72.075 42.0782 72.5562 43.9131 72.7826C45.2997 72.9521 46.6776 72.8602 48.0172 72.5551C47.6038 72.6809 47.2244 72.881 46.881 73.162C47.0472 74.3135 48.3715 72.5453 48.5235 72.4403C48.4469 72.4501 48.3759 72.4709 48.3004 72.4873C51.0845 71.7863 53.6784 70.1603 55.7769 68.006C55.7889 68.0464 55.8097 68.0836 55.8469 68.1142C56.1028 68.3264 56.2143 67.854 56.2045 67.5587C56.561 67.1683 56.8989 66.7604 57.2215 66.3394C57.2729 66.5067 57.4391 66.568 57.7759 66.2498C57.9126 65.9075 57.8688 65.7445 57.6589 65.7467C58.4244 64.6674 59.0783 63.5148 59.5868 62.3163C59.8121 62.3426 59.9597 62.4016 59.8657 62.4924C60.1248 62.2376 59.9608 62.0812 59.729 61.9576C60.0833 61.0675 60.361 60.1577 60.548 59.2369C60.7962 59.0379 60.8389 58.2582 60.8017 57.4074C60.8411 56.8289 60.8444 56.2505 60.8072 55.6764ZM27.9059 60.4059C28.1104 61.0412 28.3805 61.6493 28.7173 62.2277C28.1181 61.7466 27.848 61.1386 27.9059 60.4059ZM28.8628 62.4038C28.8781 62.4257 28.8967 62.4508 28.8967 62.4508C28.877 62.4235 28.8715 62.4158 28.8628 62.4038ZM30.8158 54.8726C30.7448 54.8901 30.6726 54.9065 30.5982 54.9251C30.6343 54.8179 30.678 54.6976 30.736 54.5456C31.1078 54.2001 30.9886 54.4232 30.8158 54.8726ZM31.2554 54.7698C31.274 54.6189 31.3112 54.573 31.3626 54.597C31.3637 54.6594 31.3637 54.6965 31.3637 54.7447C31.3265 54.7523 31.2915 54.7611 31.2554 54.7698ZM31.9017 54.6255C31.8273 54.6408 31.7453 54.6605 31.6568 54.678C31.6557 54.4439 31.7508 54.153 31.928 54.5609C31.9192 54.5861 31.9105 54.6025 31.9017 54.6255ZM53.0868 57.6808C53.007 57.7388 52.8342 57.8164 52.7664 57.8405C52.0261 59.2949 50.7707 60.2812 49.2474 60.8597C49.079 60.9909 48.9106 61.1101 48.7422 61.2217C47.7208 61.366 45.8104 61.7083 45.2002 61.7816C45.2964 61.7958 45.3839 61.8297 45.4583 61.9095C44.7081 62.7679 41.9448 61.8144 39.5204 60.5754C37.3158 59.448 35.3901 58.0854 35.5279 57.625C35.6099 57.5846 35.7969 57.4665 35.973 57.3298C35.9084 57.2346 35.8264 57.1493 35.7674 57.0531C35.9325 57.0586 36.0976 57.0641 36.2616 57.0706C36.277 57.052 36.2912 57.0345 36.3032 57.0192C36.3098 57.0378 36.3196 57.052 36.3229 57.0717C36.8292 57.0892 37.3377 57.1056 37.8429 57.122C37.9096 57.0476 37.9698 57.0509 38.0441 57.1286C38.1589 57.1318 38.2737 57.1362 38.3634 57.1308C38.3929 57.1231 38.4247 57.11 38.4575 57.0881L38.2836 56.8541C38.242 56.9897 38.2464 57.0608 38.2737 57.099C37.7849 56.9503 36.9429 56.9788 36.2944 56.9995C36.0889 57.0061 35.903 57.0127 35.7696 57.0094C35.8035 57.0017 35.9904 56.9645 36.2529 56.9175C36.2332 56.8924 36.2146 56.8672 36.1917 56.8453C36.2835 56.8453 36.3262 56.8683 36.3371 56.9044C37.2874 56.7382 39.06 56.4845 38.8271 56.9197C38.8511 56.8803 39.1366 56.9033 39.481 56.9416C39.4537 56.9962 39.4504 57.052 39.4996 57.11C39.598 57.0542 39.6407 57.005 39.6396 56.958C39.7807 56.9755 39.9239 56.9908 40.0617 57.0061C40.0617 57.0651 40.0989 57.0553 40.1251 57.0137C40.3438 57.0378 40.5385 57.0575 40.6555 57.0586C40.6894 57.0597 40.8501 56.5337 40.8359 56.5424C41.1837 56.3128 40.9584 57.0498 41.1738 57.134C42.5626 57.671 48.3026 55.7234 50.1452 57.4665C50.1135 57.4873 50.0632 57.5069 50.0052 57.5244C50.3497 57.5365 50.6941 57.5474 51.0375 57.5583C51.2289 57.508 51.4039 57.4665 51.5318 57.4424C51.055 57.3637 49.4147 57.0619 51.2037 57.2204C51.8183 57.1428 53.077 57.2532 53.5734 57.2499C53.3503 57.3418 53.112 57.4916 52.8681 57.6655C52.8419 57.7224 52.8014 57.7694 52.7751 57.8262C52.8222 57.8 52.9162 57.7563 53.0868 57.6808Z" fill="#86CA00"/>
</svg>
