<svg width="58" height="59" viewBox="0 0 58 59" fill="none" xmlns="http://www.w3.org/2000/svg">
<path d="M52.4762 12.2075C50.3744 8.82268 47.5436 6.41326 43.8978 4.80576C41.0181 3.53507 36.227 3.54308 33.9612 2.33509C34.3446 2.53994 34.7332 2.73532 35.1181 2.92633C34.9417 2.87748 34.8294 2.85488 34.8236 2.86946C34.7974 2.92633 34.8899 3.01016 35.0328 3.10275C34.5881 2.90081 34.1558 2.73241 33.9685 2.76011C34.567 2.6668 38.2012 5.52603 39.6796 5.79358C41.1311 6.0553 42.2421 7.26111 44.2827 7.15759C45.019 7.55855 45.7305 7.98721 46.4151 8.45598C46.0972 8.89995 47.0442 9.28124 47.9409 9.62242C48.3025 9.92934 48.6517 10.2538 48.9886 10.5971C48.8318 10.6606 48.6722 10.7006 48.6576 10.705C48.8952 11.3159 50.0566 12.1689 50.8869 12.9665C51.1815 13.4214 51.4599 13.9018 51.7217 14.4136C51.71 14.4449 51.7071 14.477 51.6911 14.5069C51.2296 15.3146 52.283 16.3397 52.6271 16.8412C53.0237 16.8376 53.0208 22.7893 54.5671 22.9869C54.6451 23.3696 54.7165 23.7538 54.7807 24.1395C54.6473 24.6476 54.4263 25.1609 54.5525 25.93C54.8302 25.8352 54.9491 25.8323 55.0205 25.8687C55.0373 26.0218 55.0533 26.1742 55.0701 26.328C54.4562 26.7421 55.0715 27.9946 54.9002 28.7455C55.0081 28.6616 55.1153 28.5778 55.2232 28.4954C55.2297 28.674 55.2356 28.8519 55.2378 29.0305C55.132 28.986 55.0147 28.9562 54.8878 28.9438C54.8966 30.3005 54.9367 31.0142 54.9964 31.3525C54.9505 31.3393 54.9031 31.3284 54.8572 31.308C54.1945 32.8769 54.2703 33.4761 55.0628 33.132C55.0387 33.3347 55.0154 33.5366 54.9884 33.7386C54.8966 33.6693 54.7967 33.5979 54.683 33.5235C54.5415 34.609 54.4584 35.5065 54.5255 36.312C54.3206 37.2116 54.0699 38.0916 53.7804 38.9518C53.2781 39.0933 52.91 39.3929 53.2205 40.2386C53.2665 40.1919 53.3124 40.1525 53.3598 40.1183C53.0128 41.0157 52.6242 41.8883 52.1912 42.7333C51.8223 43.2472 51.4818 43.8407 51.0437 44.4924C51.0874 44.5194 51.1217 44.5405 51.1625 44.566C50.4269 45.7689 49.6039 46.9069 48.702 47.9684C48.6897 47.9458 48.6802 47.9239 48.6663 47.8999C48.2807 48.3285 47.922 48.7805 47.5575 49.2282C45.2209 51.6471 42.4507 53.603 39.388 54.97C39.1613 55.0567 38.9353 55.1405 38.7027 55.2171C38.7086 55.2317 38.7166 55.2426 38.7217 55.2572C37.669 55.691 36.5849 56.0591 35.4732 56.35C35.2231 56.3697 34.9862 56.4178 34.7784 56.5184C34.3454 56.6183 33.9123 56.7087 33.4742 56.7867C33.4654 56.7189 33.464 56.6511 33.4538 56.5833C32.8734 56.6773 31.5022 56.8064 31.3352 56.8778C31.3717 56.9485 31.4132 57.0025 31.4548 57.0593C30.9124 57.1111 30.3678 57.1475 29.8188 57.1643C29.3406 57.0047 28.8653 56.8705 28.6837 56.8625C28.9207 56.9369 29.0249 57.044 29.0279 57.1745C27.935 57.1738 26.8298 57.1118 25.7144 56.9689C25.6058 56.9544 25.4979 56.9339 25.3886 56.9186C25.2777 56.6416 24.9985 56.4871 24.0676 56.3376C24.1397 56.4193 24.1835 56.56 24.2017 56.7247C23.1687 56.5301 22.1524 56.2749 21.1588 55.9629C20.5318 55.5138 18.769 54.8548 17.9831 54.7418C17.5887 54.5617 17.2001 54.3722 16.8152 54.1739C16.708 54.0477 16.5579 53.9216 16.3392 53.7999C15.9666 53.5928 15.788 53.5505 15.6495 53.5374C15.1458 53.2458 14.6464 52.9433 14.1616 52.621C13.5915 52.0116 12.9222 51.2009 12.2442 51.2286C9.65766 49.1808 7.43049 46.689 5.69906 43.8888C6.01691 43.6846 5.81132 43.5308 5.42202 43.4193C5.25945 43.1423 5.09835 42.863 4.94307 42.5802C4.93432 42.524 4.89421 42.4737 4.85921 42.4205C3.74745 40.3457 2.89449 38.1273 2.35719 35.8112C2.3171 33.4382 2.31274 30.7758 1.69015 29.7501C1.70838 28.0828 1.89718 26.4192 2.22233 24.7767C2.64954 23.3507 3.11831 21.6717 3.25755 21.2183C3.56374 20.2808 3.83931 19.4694 4.11415 18.7272C5.45701 15.6143 7.26209 12.6748 9.53373 10.202C10.4523 9.20177 11.4525 8.28612 12.5971 7.53595C12.5052 7.51189 12.4258 7.47034 12.3427 7.43535C12.444 7.35224 12.5482 7.27642 12.6518 7.1955C12.8668 7.22466 13.1154 7.1554 13.4807 6.92575C14.72 6.14059 16.4427 5.68059 16.3596 4.81669C16.544 4.72119 16.7292 4.62568 16.9166 4.53601C16.9399 4.59069 16.9625 4.64464 16.9858 4.7015C17.6835 4.32168 19.1277 3.9856 19.6446 3.40967C20.1797 3.22231 20.7199 3.04588 21.2659 2.8906C22.0154 2.67627 22.7736 2.49693 23.5361 2.3329C25.9973 2.00994 28.4395 2.19002 30.8125 1.48432C31.1369 1.37861 31.0079 1.2226 30.6601 1.05055C31.2762 0.894538 31.6173 0.751649 31.1384 0.696972C30.5187 0.626257 29.9034 0.585423 29.2918 0.559179C28.2952 0.266111 27.2031 0.0226214 27.0347 0.013144C26.1482 -0.0378877 25.4899 0.0641783 24.9315 0.241331C25.121 0.259557 25.3098 0.278509 25.4979 0.296006C25.4855 0.289445 25.5759 0.290898 25.7873 0.325162C25.2311 0.679468 24.8644 0.718104 24.6778 0.450552C24.6573 0.417017 24.6369 0.387127 24.6202 0.349946C24.1412 0.538035 23.7271 0.7757 23.2919 1.01336C22.3011 1.20801 21.3301 1.45953 20.3802 1.76499C20.254 1.67969 20.0382 1.60242 20.2008 1.28602C19.5133 1.52587 15.971 2.981 16.084 3.07505C16.5601 2.95184 17.0281 2.80239 17.4881 2.62815C16.0796 3.11295 11.6909 4.75691 11.2535 6.12966C11.4124 6.25505 11.5451 6.37388 11.6669 6.48761C11.5925 6.54739 11.5159 6.6028 11.4438 6.66258C11.3599 6.52188 11.2892 6.36878 11.2302 6.19746C10.1519 8.11261 8.90822 8.27153 7.52671 10.5235C6.99161 11.157 6.48422 11.8153 6.00087 12.4926C5.35277 13.1903 4.69227 13.8785 4.26214 14.6797C3.67892 15.771 0.635245 21.3029 1.252 22.4219C1.22648 22.3731 1.27241 22.2695 1.35187 22.1369C0.869986 23.8333 0.525894 25.5764 0.344367 27.3523C0.264175 28.1418 0.226271 28.9255 0.213148 29.7063C0.0440143 30.8181 -0.0441929 31.6791 0.0221484 32.0035C0.108902 31.9641 0.186896 31.9175 0.256154 31.865C0.328327 33.0321 0.474858 34.1825 0.686276 35.314C0.695024 35.6012 0.7497 35.8812 0.767926 35.9701C0.759178 35.8556 0.751156 35.7397 0.742408 35.6231C0.765736 35.7375 0.789793 35.8498 0.81458 35.9628C0.802916 35.9745 0.786159 35.9905 0.775223 35.9985C0.886035 37.3421 1.14411 38.6048 1.70473 39.1749C1.85272 39.6138 2.01238 40.0483 2.1837 40.4777C1.95698 41.9284 3.8313 44.3313 4.51877 45.3935C4.95765 46.0707 5.47817 46.6576 5.98265 47.2467C6.27645 47.6381 6.58118 48.0216 6.89393 48.3978C7.0966 48.685 7.27739 48.9847 7.44288 49.3018C8.53861 51.4014 9.1488 50.8189 10.5602 52.18C10.1359 51.7703 9.84355 51.5078 9.64453 51.2869C9.65911 51.2949 9.66786 51.3081 9.68244 51.3154C13.9086 55.1755 19.283 57.8467 25.2624 58.6785C40.5946 60.8124 54.3564 49.9674 56.7089 34.8627C57.9082 27.1883 56.6032 18.8526 52.4762 12.2075ZM17.6062 2.61868C17.7673 2.61941 17.9284 2.61941 18.0896 2.61941C17.9911 2.66242 17.8927 2.70543 17.795 2.74917C17.7302 2.70761 17.6667 2.66388 17.6062 2.61868ZM53.257 19.2222C53.3663 19.1085 53.4487 19.0232 53.5224 18.9488C53.5581 19.0611 53.5902 19.1763 53.6251 19.29C53.5085 19.2499 53.386 19.2222 53.257 19.2222Z" fill="#3233FF"/>
<path d="M24.5735 0.203125C24.5866 0.257073 24.6026 0.303735 24.6209 0.346747C24.7208 0.308838 24.825 0.272391 24.9322 0.238855C24.8133 0.226462 24.6945 0.214789 24.5735 0.203125Z" fill="#3233FF"/>
<path d="M25.4987 0.296875C25.5103 0.304894 25.6073 0.319481 25.7881 0.326042C25.6919 0.316565 25.5949 0.307081 25.4987 0.296875Z" fill="#3233FF"/>
<path d="M19.1649 27.4084C19.1912 27.3938 19.2167 27.3785 19.2415 27.3639C19.2568 27.3967 19.2641 27.4594 19.2633 27.525C19.4478 27.4106 19.571 27.3231 19.5929 27.283C19.5535 27.2589 19.5119 27.2487 19.4711 27.2298C19.5768 27.1671 19.6818 27.1088 19.7875 27.0453C19.988 27.006 20.3649 26.8842 20.3788 26.8864C20.467 27.3238 19.6847 27.3471 19.7875 27.6074C20.354 27.4339 21.414 27.3267 21.2521 26.4162C21.3651 26.6327 21.3637 26.8441 21.2478 27.0512C22.0169 26.1173 19.9056 24.2998 19.0723 23.9601C19.2809 24.068 19.4974 24.1635 19.7183 24.2473C19.8211 24.0797 16.3319 23.0036 17.4291 22.6894C17.1404 22.607 16.6476 22.4372 16.0491 22.2272C16.0593 22.2112 16.0717 22.1937 16.0644 22.174C16.052 22.1412 15.9609 22.1448 15.8858 22.1718C13.4902 21.332 9.57754 19.9439 9.44923 20.654C9.37487 19.5874 9.33914 20.7619 9.17803 20.4236C9.20282 20.5002 9.2327 20.5752 9.25895 20.6518C8.39578 20.646 7.56981 20.7225 8.55691 21.2102C9.37633 21.6177 14.7937 24.7547 18.0328 25.9533C16.4763 26.5919 15.035 27.4842 13.6141 28.386C13.1519 28.6805 8.58971 31.7862 9.7824 31.4822C10.3051 31.3495 10.8191 31.1942 11.333 31.0309C11.1005 31.2285 10.9248 31.3911 10.9029 31.4122C11.0254 31.3466 11.3345 31.1359 11.5896 30.9529C11.8411 30.8705 12.0883 30.7721 12.3354 30.6824C12.5286 30.7131 12.7196 30.751 12.7196 30.751C12.2932 30.8625 11.9235 31.071 11.6093 31.3772C11.7172 31.7096 13.8511 30.8253 13.8307 30.7626C13.6601 30.6088 13.4836 30.5942 13.2992 30.7189C13.7322 30.2479 17.5975 28.7731 17.5268 28.6339C17.2542 28.7163 16.9779 28.7709 16.6979 28.8125C17.0967 28.6725 17.7659 28.3496 18.3623 28.0317C18.2806 28.0412 18.1939 28.0383 18.1071 28.0179C18.2347 27.9457 18.3616 27.8735 18.4899 27.8013C18.5679 27.7875 18.6422 27.7999 18.7005 27.8487C18.7523 27.8188 18.8048 27.7904 18.8551 27.762C18.8405 27.7248 18.8289 27.6701 18.8172 27.6096C18.8434 27.5928 18.8733 27.5768 18.8996 27.56C18.9572 27.5885 19.0126 27.63 19.0388 27.657C19.0731 27.6373 19.1008 27.6198 19.1321 27.6016C19.1263 27.5855 19.1212 27.5717 19.1132 27.5476C19.1336 27.4849 19.1504 27.4419 19.1649 27.4084ZM20.5399 27.2633C20.4611 27.2874 20.4014 27.4273 20.2177 27.345C20.2884 27.3114 20.6952 27.2152 20.5399 27.2633ZM20.5508 26.6852C20.7098 26.7916 20.6675 26.8427 20.456 26.7683L20.5508 26.6852ZM12.6161 21.254C12.5695 21.2372 12.525 21.2182 12.4769 21.2022C12.5191 21.138 12.5782 21.122 12.6161 21.254ZM11.8645 21.0156C11.8433 21.009 11.8251 21.0017 11.804 20.9959C11.8295 20.9784 11.8477 20.993 11.8645 21.0156ZM12.4047 30.6591C12.4455 30.6445 12.4841 30.63 12.5264 30.6154C12.4929 30.6875 12.4477 30.7152 12.4047 30.6591ZM15.3857 29.4212C15.5322 29.3512 15.6795 29.2783 15.8267 29.2062C15.6882 29.344 15.5504 29.4817 15.4134 29.6195C15.3864 29.5444 15.3784 29.4781 15.3857 29.4212Z" fill="#3233FF"/>
<path d="M36.94 26.8159C37.4794 27.2518 38.1414 27.0521 38.9739 27.6681C39.3683 27.9415 39.4092 27.9181 39.3261 27.8015C39.4361 27.8817 39.5513 27.9531 39.6636 28.0297C39.8509 28.5604 40.5311 28.992 41.3156 29.3434C42.5892 29.9142 44.1165 30.2758 44.2863 30.512C44.3315 30.5754 44.0684 31.1317 44.2477 31.0704C44.196 31.0887 44.5459 30.7001 44.5459 30.7001C44.5947 30.722 44.7106 30.7788 44.8411 30.8459C44.9454 30.8991 45.0278 30.9407 45.1087 30.9837C45.1328 30.9633 45.1634 30.9443 45.2107 30.9305C45.2158 30.9684 45.2064 30.9997 45.1947 31.0296C45.3821 31.1295 45.533 31.217 45.5286 31.2345C44.9804 31.8556 47.4569 31.5122 47.3854 31.5356C47.15 31.4947 46.0163 31.4619 46.1796 31.5151C46.087 31.4845 45.7692 30.9378 45.7692 30.9378C45.9974 30.8175 46.6506 31.6281 46.8598 31.1944C46.9028 31.1003 46.6506 30.913 46.3283 30.7242C47.1594 30.9203 47.7601 31.0231 47.4758 30.8393C45.6875 29.6868 44.0151 28.3672 42.2261 27.2139C42.0621 27.1075 40.6769 26.4645 39.4041 25.9884C40.7652 25.4737 42.7962 23.4572 44.2995 21.7827C45.0372 21.155 45.5738 20.6002 45.5942 20.278C45.627 20.2379 45.6591 20.1985 45.6904 20.1591C46.0805 20.3341 45.8596 20.1868 45.7677 20.0644C45.8013 20.0228 45.8333 19.9827 45.8632 19.9448C45.8931 19.947 45.9274 19.9514 45.9697 19.9579C45.9354 19.9521 45.8989 19.9506 45.8632 19.9448C46.1665 19.5642 46.3284 19.3375 46.2773 19.3703C46.1024 19.4848 45.7816 19.6605 45.3682 19.8806C45.2953 19.8719 45.2246 19.8609 45.1531 19.8529C45.3041 19.8034 45.342 19.7108 45.2669 19.5737C45.2982 19.5985 44.5262 19.7844 44.637 19.7283C44.6902 19.702 42.9537 20.9764 41.5787 21.981C40.4407 22.6728 39.3691 23.4142 38.7078 24.1061C37.9526 24.604 37.3788 25.072 38.6036 24.214C38.4899 24.3401 38.3951 24.4647 38.312 24.5865C38.0269 24.8861 37.7156 25.1544 37.4401 25.465C37.1929 25.4796 37.1295 25.613 37.3708 25.9272C37.0296 26.2457 36.6389 26.5724 36.94 26.8159ZM45.829 31.3941L45.7962 31.1659C45.9048 31.1164 45.9769 31.1492 45.829 31.3941ZM40.4342 28.6887C39.9282 28.4562 40.0813 28.3213 40.4342 28.6887V28.6887ZM40.76 28.8331C40.7797 28.8404 40.7761 28.7937 40.7644 28.8185C40.8155 28.6435 40.9365 28.8987 40.76 28.8331ZM45.4127 30.563C45.2552 30.5784 44.9709 30.4639 44.6297 30.2853C44.8193 30.3378 45.0175 30.391 45.2158 30.4435C45.2596 30.4989 45.3245 30.5404 45.4127 30.563ZM37.5378 26.1247C37.4678 26.1444 37.4175 26.1524 37.4386 26.1306C37.4481 26.116 37.4736 26.1021 37.5072 26.089C37.5174 26.1007 37.5276 26.1123 37.5378 26.1247Z" fill="#3233FF"/>
<path d="M38.2769 35.9317C38.18 35.5154 37.6667 35.2653 36.9312 35.1261C36.9647 35.0969 37.007 35.0787 37.0354 35.0408C36.999 34.9737 36.7445 35 36.4595 35.0554C34.1222 34.7791 30.2839 35.3142 29.4492 35.363C27.5012 35.476 25.5598 35.6444 23.6162 35.8063C23.5878 35.8092 20.3954 36.095 19.6044 36.4289C19.4987 36.3202 19.428 36.2962 19.4127 36.4172C18.7464 41.7792 21.9052 44.8804 25.8084 45.9332C26.6497 47.1368 28.3476 47.4626 29.7145 47.1032C29.0285 47.1382 29.1094 47.1164 29.9573 47.0391C30.6193 47.0143 31.669 46.4734 32.6685 45.764C32.729 45.7443 32.7896 45.7232 32.8472 45.7028C32.7502 45.7946 32.7203 45.8362 32.8836 45.6911C32.9354 45.6729 32.9886 45.6561 33.0389 45.6372C33.0207 45.6561 33.001 45.6758 32.9726 45.7057C32.3325 46.4595 32.9004 45.8289 33.0695 45.6255C36.5922 44.3118 39.0657 41.22 37.736 36.5346C37.7856 36.7081 37.5734 37.3635 37.257 38.1763C37.3562 37.5829 37.3868 36.9822 37.3343 36.3858C37.962 36.2539 38.317 36.103 38.2769 35.9317ZM20.3145 36.8663C20.2401 36.8714 20.1658 36.8772 20.0892 36.883C20.098 36.9071 20.106 36.9297 20.1133 36.953C20.0783 36.9749 20.0586 37.0041 20.0287 37.0296C20.0098 36.9946 19.9893 36.9654 19.9689 36.9326C19.9908 36.9122 20.0185 36.894 20.0433 36.8743C20.0098 36.8801 19.9762 36.8845 19.942 36.8903C19.9172 36.8524 19.8931 36.8131 19.8691 36.7773C19.942 36.7919 20.0265 36.8058 20.1176 36.8189C20.0907 36.8364 20.0666 36.8553 20.0426 36.8743C20.1373 36.8604 20.2255 36.8488 20.2948 36.8408C20.3138 36.8429 20.3342 36.8451 20.3561 36.8473C20.34 36.8532 20.3298 36.8604 20.3145 36.8663ZM30.8788 36.972C30.8817 37.1207 30.3546 37.1535 30.3043 37.1659C30.2774 37.1717 30.8722 36.7299 30.8788 36.972ZM29.2895 37.2497C29.3092 37.397 28.9753 37.4079 28.9491 37.3919C28.89 37.3569 29.264 37.0675 29.2895 37.2497ZM27.927 37.5311C28.1588 37.5596 28.2805 37.4765 27.927 37.5311V37.5311ZM27.3124 37.2702C27.2133 37.2519 26.9114 37.4065 26.7357 37.354C26.7489 37.3576 26.7992 37.3729 26.8138 37.3773C26.805 37.3751 26.7831 37.3678 26.7357 37.354C26.789 37.37 27.1695 37.2446 27.3124 37.2702ZM25.2587 37.3307C25.3222 37.3554 24.7637 37.4254 24.938 37.526C24.9314 37.5217 24.9161 37.5122 24.8906 37.4969C24.8016 37.4429 24.9161 37.5122 24.8906 37.4969C24.8009 37.4429 25.2252 37.3168 25.2587 37.3307ZM23.3611 42.6992C23.8575 43.246 24.3846 43.7395 24.9394 44.1689C24.3606 43.7475 23.8328 43.2547 23.3611 42.6992ZM24.214 39.7036C24.276 39.7474 24.8075 40.066 25.0765 40.1498C24.7783 40.098 24.1382 39.8662 24.214 39.7036ZM26.1503 46.0192C26.2743 46.0483 26.3997 46.0753 26.5258 46.1008C26.5127 46.1263 26.5075 46.1519 26.5345 46.1497C26.0519 46.2109 26.0352 46.1074 26.1503 46.0192ZM26.7153 46.1497C26.7423 46.1489 26.7591 46.1526 26.7846 46.1526C26.8568 46.1657 26.9289 46.1767 27.0018 46.1876C27.0937 46.2299 27.1017 46.3042 27.012 46.4238C26.9515 46.5047 26.7117 46.181 26.7153 46.1497ZM27.1032 46.8022C27.0412 46.7635 26.9821 46.7205 26.9282 46.6695C27.1549 46.7475 27.3802 46.8262 27.6055 46.9042C27.6128 46.902 27.6616 46.9152 27.7812 46.9655C27.5231 46.9771 27.2971 46.9232 27.1032 46.8022ZM27.3372 46.3334C27.7272 46.4187 28.1078 46.5317 28.4796 46.6724C28.3031 46.6323 27.5275 46.7606 27.3372 46.3334ZM28.5197 47.0471C28.5627 47.0522 28.5044 47.0121 28.5131 47.034C28.4205 46.8984 28.901 47.0486 28.5197 47.0471ZM28.4008 46.3297C29.0205 46.3582 29.6416 46.3407 30.2533 46.2765C30.1345 46.3407 30.0375 46.3888 29.9712 46.4085C30.1724 46.3837 30.6215 46.2758 31.0333 46.1672C31.3104 46.1198 31.5837 46.0629 31.8513 45.9973C31.8477 46.7642 30.0623 46.6257 28.4008 46.3297ZM29.5337 40.8416C29.6803 40.9131 29.3806 41.0501 29.2997 40.9926C29.2057 40.9248 29.5337 40.8416 29.5337 40.8416ZM34.2053 37.6543C34.1579 37.6944 34.0588 37.7447 34.0092 37.7673C33.5718 38.7763 32.7619 39.4864 31.7602 39.9318C31.6581 40.0208 31.5553 40.1017 31.4525 40.179C31.9978 40.0689 32.1568 40.0689 31.1566 40.3918C31.255 40.3306 31.3541 40.2533 31.4525 40.179C30.7774 40.316 29.5119 40.62 29.1116 40.6907C29.1772 40.6958 29.2392 40.7155 29.2932 40.7658C28.3753 41.9483 22.0073 38.7756 22.5431 38.25C22.5891 38.207 22.6007 38.2434 22.7473 38.0342C22.7174 37.9926 22.6831 37.9525 22.6539 37.911C22.713 37.9088 22.7728 37.9081 22.8318 37.9073C22.8406 37.8949 22.8479 37.8811 22.8566 37.8687C22.7786 37.8752 22.7101 37.8811 22.6525 37.8833C22.6707 37.8774 22.7589 37.8541 22.885 37.8235C22.9003 37.8002 22.9105 37.7819 22.928 37.7564C22.9193 37.7564 22.9295 37.7783 22.9433 37.8089C23.5397 37.6653 24.8337 37.3883 24.6843 37.7025C24.701 37.6748 24.8913 37.6791 25.1217 37.6908C25.1304 37.6704 25.1363 37.65 25.1596 37.6288C25.2048 37.6485 25.2259 37.6704 25.2281 37.6966C25.3229 37.701 25.4184 37.7068 25.511 37.7127C25.511 37.6923 25.5132 37.6631 25.5365 37.6128C25.5744 37.6543 25.5678 37.6893 25.554 37.7141C25.6991 37.7221 25.831 37.7273 25.9076 37.7236C25.9273 37.7229 26.0206 37.3635 26.0082 37.3737C26.2298 37.2075 26.1095 37.7068 26.2568 37.7535C27.1979 38.056 30.9488 36.5368 32.2384 37.6259C32.2195 37.6412 32.1867 37.6551 32.148 37.6711C32.3762 37.6646 32.6073 37.658 32.8355 37.6529C32.9623 37.6106 33.0804 37.5763 33.165 37.5545C32.8464 37.5202 31.7325 37.389 32.9346 37.4211C33.3393 37.346 34.1798 37.37 34.5108 37.3489C34.3672 37.4181 34.2163 37.5268 34.061 37.65C34.0464 37.6864 34.0289 37.7207 34.0136 37.7564C34.0464 37.7382 34.104 37.7068 34.2053 37.6543ZM34.5465 37.2373C34.1565 37.2993 33.7643 37.3117 33.3706 37.2723C33.4253 37.2731 34.7543 37.1134 34.5465 37.2373Z" fill="#3233FF"/>
</svg>
