<svg width="58" height="58" viewBox="0 0 58 58" fill="none" xmlns="http://www.w3.org/2000/svg">
<path d="M41.2132 26.6616C41.2751 27.0816 41.3532 27.508 41.4436 27.9097C41.4713 27.9229 41.4822 27.9608 41.4924 27.9994C41.5952 28.571 41.7549 29.0856 41.9313 29.4502C41.9459 29.4487 41.9539 29.4472 41.9743 29.4458L42.018 29.5464C42.0093 29.5442 41.9925 29.5391 41.9728 29.5333C42.1376 29.8467 42.3169 30.0261 42.5014 30.0013C42.5189 30.021 42.5385 30.0407 42.5575 30.0604C42.3818 30.2783 42.5167 30.169 42.6202 30.126C42.6435 30.1486 42.6691 30.1675 42.6946 30.1894C42.6873 30.2171 42.6792 30.2463 42.6552 30.2966C42.6727 30.2594 42.6902 30.2324 42.707 30.2011C42.8316 30.3075 42.9621 30.3979 43.0984 30.4679C43.089 30.532 43.0795 30.5867 43.07 30.6552C43.07 30.6552 43.1086 30.5889 43.1604 30.4963C43.3499 30.5845 43.5534 30.6385 43.7655 30.6428C45.2644 30.672 45.8111 29.6616 45.8469 28.3318C46.7129 27.3221 46.1348 24.7013 44.6615 23.6697C44.5514 23.4393 44.4369 23.2308 44.3276 23.0449C44.3954 23.0311 44.3115 22.9021 44.1373 22.7475C44.036 22.5995 43.939 22.4734 43.8479 22.3823C43.3733 21.8996 42.8775 21.9631 42.4292 22.2809C42.4554 22.2226 42.4708 22.1832 42.4708 22.1832C42.403 22.2467 42.3454 22.3166 42.2863 22.3852C41.8183 22.7796 41.4086 23.435 41.1381 24.0204C40.9449 24.4388 40.8283 24.7961 40.7991 25.0148C40.743 25.45 40.9361 26.0719 41.2132 26.6616ZM43.6335 28.092C43.7852 28.0147 43.9405 27.8879 44.0812 27.7267C44.0279 27.9761 43.9405 28.2181 43.8114 28.4536C43.7691 28.3406 43.7072 28.2203 43.6335 28.092Z" fill="#CAB500"/>
<path d="M51.6842 10.9771C49.1887 7.61921 45.8826 5.2054 42.0297 3.6052C40.9784 3.16851 31.5653 -0.0931482 31.1898 1.16734C31.1658 1.24826 31.6761 1.47571 32.4525 1.77316C32.4036 1.77097 32.3723 1.77461 32.3679 1.78701C32.3512 1.84387 32.435 1.91313 32.5677 1.98603C32.1222 1.83585 31.6958 1.71994 31.5222 1.76514C31.7176 1.71192 37.0257 5.15 37.5083 4.14467C39.1478 4.52231 39.5824 5.75217 41.924 5.60783C42.2535 5.59616 41.628 5.24696 41.1906 5.02752C42.2258 5.53419 43.2275 6.097 44.1898 6.71667C43.5526 7.29989 44.9108 7.67899 46.0051 7.9859C46.3156 8.22794 46.6153 8.48383 46.9142 8.74118C46.7516 8.83595 46.5679 8.91031 46.5679 8.91031C46.858 9.36303 47.8313 9.9273 48.6966 10.4996C48.8701 10.6928 49.0502 10.8794 49.2142 11.0799C49.5394 11.4765 49.8492 11.8928 50.1481 12.3207C50.0154 13.0103 50.8742 13.8094 51.3306 14.2103C51.3896 14.3153 51.4545 14.4159 51.5114 14.5223C51.7534 15.4475 52.6742 19.2311 53.7743 19.9587C53.9565 20.5543 54.122 21.1572 54.2729 21.7637C54.2124 22.1239 54.184 22.5205 54.3167 23.014C54.4085 22.9725 54.48 22.9433 54.5412 22.9236C54.5915 23.1708 54.636 23.4179 54.6826 23.6658C54.5434 24.2315 55.0355 25.1391 54.9575 25.7632C54.975 25.7471 54.9925 25.7311 55.0092 25.7136C55.0202 25.7974 55.0355 25.882 55.0457 25.9658C55.0202 25.9651 54.9998 25.9564 54.975 25.9564C55.0617 26.7641 55.1383 27.3328 55.2061 27.7257C55.2185 27.9167 55.2279 28.1055 55.2374 28.2943C55.217 28.2892 55.1981 28.2885 55.1769 28.282C54.7351 29.6715 54.7767 30.2911 55.2841 30.1658C55.2826 30.2831 55.2826 30.3998 55.2797 30.5164C55.2535 30.5026 55.2338 30.4887 55.2068 30.4741C55.1747 31.1521 55.1638 31.7507 55.1893 32.3033C55.1674 32.5839 55.1485 32.8675 55.1171 33.1416C55.0129 34.0886 54.8525 35.0167 54.6425 35.9243C54.2095 36.1044 53.9296 36.431 54.2722 37.1994C54.2897 37.1761 54.3101 37.16 54.3312 37.1403C54.1089 37.9138 53.8464 38.6676 53.5556 39.4069C53.1094 40.0025 52.7536 40.7242 52.3527 41.5262C52.4212 41.5626 52.4817 41.5954 52.5459 41.6304C51.8956 42.8923 51.1439 44.0916 50.2997 45.2201C50.2698 45.1625 50.2363 45.1049 50.1926 45.0415C49.7129 45.6801 49.2725 46.3902 48.7936 47.0507C47.9005 48.0407 46.9353 48.9622 45.9052 49.8079C44.9815 50.5209 44.0644 51.1967 43.1145 51.8229C40.8727 53.2306 38.4232 54.3125 35.8541 55.0102C35.8505 54.9949 35.8505 54.9796 35.8461 54.9635C35.2476 55.0802 34.0097 55.3266 33.7742 55.4323C33.7844 55.4491 33.7961 55.4593 33.8077 55.4753C33.2063 55.5876 32.6027 55.6853 31.9961 55.756C31.6156 55.6692 31.2802 55.6087 31.1475 55.616C31.3174 55.6598 31.4216 55.7232 31.4778 55.8026C30.3689 55.9076 29.2513 55.9455 28.1257 55.9033C28.1381 55.8712 28.1403 55.8406 28.1534 55.8078C27.5994 55.7698 27.0584 55.6627 26.5313 55.487C26.5962 55.5519 26.6451 55.67 26.6786 55.8092C25.7513 55.7203 24.824 55.5803 23.8974 55.3835C23.6969 55.3412 23.5015 55.2901 23.3025 55.2428C22.6631 54.9672 21.6199 54.6697 20.8734 54.5422C20.2778 54.338 19.6902 54.1142 19.1128 53.8685C18.87 53.3677 18.4851 53.0331 17.9879 53.3582C10.9069 49.9537 5.49825 43.5076 3.21129 35.9994C2.99623 34.206 2.73525 32.4214 2.23951 31.4868C2.11193 30.4873 2.03174 29.4783 2.01643 28.4613C1.91364 21.3599 4.7561 14.1221 9.75211 9.04299C10.0087 8.81626 10.2661 8.59245 10.5416 8.38395C10.5125 8.37885 10.4913 8.365 10.4636 8.35844C10.5774 8.25127 10.6867 8.13973 10.8019 8.03548C10.8653 7.97861 10.939 7.92102 11.0031 7.86416C11.3968 7.76136 11.8087 7.39904 12.5836 6.81363C13.5146 6.11013 14.4842 5.98182 14.2998 5.46858C14.4288 5.38766 14.5557 5.30674 14.6862 5.22655C14.7029 5.26154 14.7182 5.29362 14.7357 5.32934C15.6178 4.81246 16.4176 4.46399 16.9191 3.98137C17.2093 3.83119 17.506 3.6883 17.8027 3.54396C17.7969 3.57312 17.7998 3.59572 17.7889 3.62853C18.0484 3.51698 18.3094 3.40617 18.5697 3.29536C18.5449 3.26839 18.5208 3.24214 18.4953 3.2159C18.5894 3.17142 18.6848 3.12987 18.7789 3.08759C18.7803 3.12696 18.7877 3.16268 18.7847 3.20423C21.8853 1.76295 25.1535 2.32649 28.2139 1.22201C28.6936 1.03465 28.1323 0.788242 27.3048 0.56589C27.7226 0.530168 28.1279 0.509027 28.5055 0.518504C28.0397 0.506111 27.5768 0.50684 27.1168 0.516317C26.0101 0.234913 24.5586 0.00162521 24.3763 0.000167157C23.4082 -0.00566504 22.7317 0.141598 22.1761 0.366867C22.5049 0.378531 22.8337 0.390196 23.1625 0.40186C22.6354 0.786785 22.2709 0.848752 22.0704 0.595051C22.0369 0.552039 22.0099 0.504652 21.9873 0.450705C21.3188 0.756895 20.8143 1.1739 20.1524 1.55955C19.4153 1.76805 18.6921 2.00571 17.9828 2.27327C17.915 2.14569 17.517 2.1384 17.6992 1.74181C17.0292 2.00717 13.6021 3.66935 13.7435 3.77506C14.2006 3.61322 14.6504 3.42586 15.0886 3.21444C13.8142 3.82026 9.45466 5.69312 9.12952 7.06442C9.28553 7.17231 9.42332 7.26636 9.55309 7.35311C9.47945 7.41872 9.40509 7.4858 9.33146 7.55214C9.24981 7.42456 9.17326 7.28823 9.11129 7.13295C8.17741 9.04153 6.98692 9.23545 5.84964 11.3445C5.14904 12.2653 4.50605 13.2327 3.92064 14.2439C3.48031 14.8067 3.06331 15.3841 2.78117 16.0263C2.3598 16.985 0.513178 21.4889 0.531403 23.3676C0.462146 23.727 0.397261 24.0871 0.341126 24.4524C-1.16941 34.3474 2.43416 43.714 9.21846 49.9588C9.60922 50.4596 9.98321 50.9955 10.3485 51.6392C10.6838 52.2414 11.7737 52.2902 12.4342 52.5177C15.6186 54.6967 19.295 56.2802 23.3397 57.0675C39.9811 60.3109 55.4641 49.4922 57.4398 32.3732C58.3132 24.849 56.2005 17.0557 51.6842 10.9771ZM15.2096 3.20715C15.4261 3.19767 15.6426 3.18892 15.8577 3.17872C15.7294 3.23995 15.6033 3.30484 15.4771 3.36826C15.386 3.31942 15.2949 3.26547 15.2096 3.20715ZM33.8427 2.45698C33.8632 2.46354 33.8916 2.47229 33.9047 2.47666C33.8901 2.47375 33.8683 2.46646 33.8427 2.45698ZM52.3898 16.541C52.4175 16.5067 52.4365 16.4827 52.4598 16.4513C52.4722 16.4805 52.4868 16.5097 52.4992 16.5388C52.4627 16.5403 52.4278 16.5366 52.3898 16.541Z" fill="#CAB500"/>
<path d="M16.75 25.8447C16.7092 26.1508 16.621 26.4439 16.4898 26.7239C16.2769 26.6765 17.1663 24.5309 15.9102 24.1591C15.8533 24.2955 15.8234 24.4435 15.8059 24.598C15.7265 24.356 15.631 24.1402 15.5223 23.9565C15.9248 24.5484 15.5326 23.7064 15.472 23.6481C15.6492 23.6415 15.7739 23.6627 15.857 23.7057C15.8468 23.6853 15.8366 23.6598 15.8213 23.6291C15.6135 23.3616 15.3175 23.0343 15.2541 22.9971C16.0553 22.9628 14.1073 22.3825 13.2135 22.6056C12.7951 23.1371 11.8196 24.5696 11.6702 24.1438C11.6082 24.3997 11.6024 24.8802 11.6374 25.4568C11.6155 25.3912 11.5499 25.3139 11.5025 25.3533C11.4646 25.3854 11.5725 25.5961 11.6374 25.5268C11.6848 26.1888 11.7854 26.9972 11.9304 27.7562C11.7402 29.656 12.2199 31.3393 14.5425 30.4783C14.8509 30.3646 15.1083 30.151 15.3211 29.874C15.9291 29.6924 16.5867 29.3425 16.2674 29.11C16.0924 29.1005 15.9663 29.1727 15.8898 29.3265C16.021 29.0866 16.3053 28.257 16.5248 27.4682C16.5022 27.2794 16.5554 27.1934 16.594 27.2167C16.7916 26.476 16.9082 25.8323 16.75 25.8447ZM16.2193 24.4435C16.247 24.4362 16.2499 24.4413 16.1442 24.4814C15.6674 24.3706 16.419 24.3217 16.2193 24.4435ZM12.0201 26.3958C11.9822 26.4723 12.0923 26.4264 12.0201 26.3958V26.3958ZM12.0792 26.0816L12.1768 26.1457C12.2512 26.2376 12.0464 26.153 12.0792 26.0816ZM14.6585 28.4815C14.6205 28.3678 14.5855 28.2534 14.5542 28.1382C14.6366 28.0332 14.7175 27.9092 14.7941 27.77C14.7802 28.0339 14.7386 28.2752 14.6585 28.4815ZM16.0006 25.0952C15.838 24.6563 16.005 24.7759 16.0006 25.0952V25.0952ZM15.3481 23.5869L15.2723 23.514C15.3751 23.4462 15.405 23.4746 15.3481 23.5869ZM14.899 23.2537C14.9019 23.2267 15.047 22.9519 14.899 23.2537V23.2537ZM13.9797 22.8112C13.9323 22.8134 13.9039 22.7623 13.8937 22.6574C13.925 22.6574 14.0461 22.8214 13.9797 22.8112ZM13.2121 22.906C12.8716 23.4892 13.4818 22.5633 13.2121 22.906V22.906ZM13.2084 23.5934C13.2215 23.565 13.2332 23.5417 13.2434 23.5227C13.2347 23.5402 13.2281 23.5577 13.2194 23.5745C13.3907 23.2624 13.5882 22.93 13.5882 22.93C13.6611 22.9205 14.1314 23.0991 14.5899 23.3215C14.4383 23.3361 14.2764 23.4039 14.1066 23.5198C13.7399 23.401 13.3688 23.5264 13.0517 24.0163C13.0327 24.0469 13.0116 24.0819 12.9919 24.1169C13.0684 23.9244 13.1392 23.748 13.1931 23.627C13.1173 23.7822 13.0422 23.9383 12.9678 24.095C12.9708 24.041 13.0808 23.8245 13.2084 23.5934ZM12.7265 24.0031C12.6748 24.0068 12.642 23.982 12.6296 23.9259C12.7149 23.9164 12.7477 23.9441 12.7265 24.0031ZM12.7119 24.1992C12.5319 24.0469 12.6653 24.3086 12.7119 24.1992V24.1992ZM12.4233 25.0668C12.4612 25.1419 12.5231 25.0945 12.596 24.9793C12.5319 25.1492 12.4692 25.3307 12.408 25.5224C12.373 25.5013 12.3649 25.3832 12.4233 25.0668ZM12.3423 25.6194C12.2855 25.6879 12.2381 25.6814 12.2082 25.5931C12.2417 25.5538 12.2855 25.564 12.3423 25.6194ZM12.1404 25.5844C12.2468 25.6332 12.2301 25.6544 12.0741 25.6485L12.1404 25.5844ZM12.2111 25.9022C12.1492 25.9671 12.0682 25.9671 11.9676 25.8942C12.0485 25.8388 12.1302 25.8439 12.2111 25.9022ZM13.2347 28.8599C13.2361 28.7994 13.2361 28.7367 13.2361 28.6747C13.4752 28.8657 13.737 29.0239 13.9804 29.1318C13.5984 29.2594 13.3637 29.1377 13.2347 28.8599ZM16.0232 28.3962C16.0152 28.4043 15.9889 28.4043 15.959 28.4021C16.0801 27.8662 16.134 27.2816 16.1267 26.7034C16.2936 27.4121 16.3862 28.0478 16.0232 28.3962ZM16.1734 24.7023C16.0757 24.7227 16.2164 24.5353 16.2426 24.5193C16.438 24.598 16.4154 24.6651 16.1734 24.7023ZM16.4504 25.2658C16.2856 24.6403 16.6027 25.1674 16.4504 25.2658V25.2658Z" fill="#CAB500"/>
<path d="M28.8001 38.4886C28.6674 38.5571 28.5282 38.606 28.3853 38.6483C28.3109 38.6541 28.2351 38.6599 28.1586 38.6658C27.5535 38.6504 26.7122 38.5003 26.484 38.4048C26.4534 38.7992 26.2558 38.8189 26.4373 38.3829C25.8038 38.6439 25.5727 38.7175 25.2884 38.7729C25.3052 38.7131 25.3125 38.6519 25.2855 38.6082C25.2542 38.5615 25.1572 38.6862 25.1346 38.8021C25.0252 38.8203 24.8925 38.8444 24.7307 38.8764C23.8347 38.9114 23.0262 38.9209 22.4029 38.891C22.0763 38.6782 21.5813 38.7066 21.2496 38.6956C21.2102 38.6716 21.1811 38.6453 21.1687 38.6162C21.1811 38.6446 21.1957 38.6665 21.208 38.6935C21.0812 38.6876 20.9813 38.6738 20.934 38.6308C20.7349 38.4587 19.8776 39.1236 19.7836 39.5522C19.8171 39.3379 19.8091 39.1258 19.7595 38.9151C19.6253 39.4793 19.5648 39.5297 19.5801 39.0645C19.5801 39.8446 19.4329 39.8818 19.3345 40.2062C19.3505 40.1493 19.8878 40.9964 19.7639 40.8958C19.7558 40.89 24.1424 40.9811 25.4597 40.9367C25.5436 40.9447 25.6281 40.952 25.7127 40.9585C23.8603 41.2757 22.5006 41.5644 22.6209 41.5673C23.8114 41.6037 34.3341 41.8013 34.9057 40.785C34.9946 40.7355 35.1128 40.5751 35.1397 40.489C35.9314 40.3972 36.6649 40.2988 37.2619 40.1967C37.3516 40.3994 37.52 40.6443 37.4515 40.1639C37.4792 40.1581 37.5061 40.153 37.5324 40.1479C37.6556 40.3841 37.8298 40.8288 37.719 40.8762C37.9005 40.7982 37.8225 40.0852 37.8881 40.0786C37.9581 40.0713 38.0784 40.0633 38.214 40.0567C38.3241 40.0516 38.4167 40.048 38.5064 40.0465C38.5166 40.005 38.5319 39.962 38.5596 39.9131C38.5836 39.9561 38.5902 40.0006 38.5975 40.0451C38.8075 40.0436 38.9795 40.0524 38.9882 40.083C38.9255 40.9739 40.6468 39.4043 40.6774 39.3664C40.1408 39.5311 39.8201 39.6062 39.6342 39.639C39.7173 39.6747 39.7763 39.7673 39.7078 39.978C39.7231 39.9328 39.0458 39.6135 39.0094 39.5289C39.1384 39.1542 39.6859 39.5676 39.9214 39.4721C40.5717 39.2096 38.779 38.6905 38.2636 38.8225C38.1958 38.7438 38.1266 38.6658 38.0507 38.598C38.066 38.5673 38.0894 38.5433 38.1032 38.5105C38.0631 38.5214 38.0303 38.5389 37.9982 38.5571C36.6488 37.4381 34.1096 37.9958 32.5604 38.2327C32.3097 38.2714 31.7118 38.3399 30.9187 38.4201C30.6774 38.4084 30.5111 38.4128 30.3653 38.474C29.8426 38.5243 29.2594 38.5768 28.6478 38.6271C28.7476 38.5987 28.8096 38.5557 28.8001 38.4886ZM20.0234 39.9204C19.9046 40.0494 19.8703 39.9787 19.9301 39.7119C19.9388 39.7279 20.2895 39.7659 20.0234 39.9204ZM20.7816 39.004L20.673 38.9778C20.716 38.9246 20.9719 38.5666 20.7816 39.004ZM39.3236 40.0895L39.1625 39.8103C39.2186 39.6718 39.2966 39.6667 39.3236 40.0895ZM21.8248 40.185C21.722 40.6618 21.827 40.2317 21.8248 40.185V40.185ZM21.7935 39.5676C21.7884 39.5807 21.7833 39.5909 21.7782 39.6047C21.5084 40.0203 21.4844 39.9744 21.7023 39.4772C21.7315 39.5085 21.7643 39.5369 21.7935 39.5676ZM21.6032 40.1282C21.5551 40.1675 21.5208 40.3666 21.504 40.1326L21.6032 40.1282ZM21.2307 40.6706C21.2963 40.6939 21.827 40.8157 22.0749 40.8237C21.8088 40.8937 21.1949 41.0227 21.2307 40.6706ZM22.2498 40.5984C22.1922 40.6545 22.2783 40.4132 22.3424 40.4701L22.2498 40.5984ZM22.263 40.0771C22.2542 40.029 22.2513 39.994 22.2513 39.9649C22.2899 39.9933 22.3264 40.0247 22.3658 40.0509L22.263 40.0771Z" fill="#CAB500"/>
</svg>
