<svg width="59" height="60" viewBox="0 0 59 60" fill="none" xmlns="http://www.w3.org/2000/svg">
<path d="M21.4201 27.3648C21.3392 27.2219 21.1971 27.047 21.0068 26.8501C21.0447 26.7058 21.0899 26.5797 21.0935 26.9048C21.0884 26.3879 21.2503 25.9695 21.0768 25.7296C21.251 25.9709 19.7587 25.5984 19.1091 25.2747C19.0311 25.2171 18.9517 25.1603 18.8715 25.1027C18.8693 25.0691 18.8598 25.0298 18.8387 24.9853C18.811 25.013 18.8175 25.0458 18.8409 25.0808C18.6593 24.9532 18.4756 24.8242 18.2875 24.6966C18.5128 24.6456 18.3619 24.5982 18.1118 24.5785C17.7721 24.3518 17.4229 24.1272 17.0715 23.9129C17.0708 23.8699 17.0766 23.8385 17.1007 23.8378C17.0518 23.8393 17.0139 23.8466 16.976 23.8538C16.5051 23.5681 16.0327 23.2998 15.5792 23.0629C15.5763 23.0446 15.5777 23.0279 15.585 23.0162C15.5726 23.0344 15.5734 23.0446 15.5697 23.0578C15.3838 22.9601 15.2008 22.8689 15.0222 22.7829C15.0222 22.7632 15.004 22.7115 14.9712 22.7049C14.988 22.7465 14.9982 22.764 15.0069 22.7763C14.8276 22.6911 14.6541 22.6109 14.4849 22.5394C14.5469 22.4199 14.6286 22.137 14.3967 22.5015C14.4405 22.3987 14.4835 22.1552 14.5505 22.0685C14.4733 22.153 14.2502 22.3725 14.2502 22.3725C14.2341 22.3615 14.2115 22.3076 14.1846 22.2456C14.1576 22.1837 14.1343 22.1363 14.1109 22.0954C14.0956 22.1574 14.0541 22.2121 13.9717 22.2514C14.0009 22.1858 14.0519 22.1377 14.1109 22.0954C14.0621 22.0123 14.0001 21.9577 13.9316 22.0255C14.2597 21.8301 14.0227 21.7134 13.2179 21.6719C13.2332 21.6821 13.484 21.9985 13.6312 22.0189C13.6196 22.0255 13.6145 22.0233 13.5933 22.0415C13.6283 22.0962 13.6429 22.1093 13.6363 22.0801C13.6509 22.1137 13.6786 22.1508 13.7362 22.1829C13.7114 22.2135 13.6896 22.2281 13.6699 22.2391C13.6276 22.2259 13.5868 22.2135 13.5459 22.2033C13.4599 22.0984 13.3943 21.8833 13.231 22.0437C13.2055 22.0685 13.1924 22.0954 13.18 22.121C12.6923 22.0429 12.3627 22.1282 12.284 22.4461C12.0872 23.2371 13.1071 24.1848 14.2655 24.9875C13.9236 25.6742 13.4074 26.7386 13.247 26.2341C13.2113 26.3741 13.1122 26.8523 13.0225 27.4195C12.9999 27.386 12.97 27.3626 12.9409 27.3787C12.9081 27.3976 12.9474 27.5289 13.0006 27.5617C12.9372 27.9903 12.884 28.4547 12.8694 28.8608C12.7637 29.3193 12.7345 29.7823 12.8177 30.2314C12.7345 30.6484 13.1997 31.357 13.6918 31.9037C13.7202 31.895 13.796 31.9941 13.796 31.9941C14.232 32.4819 14.681 32.8099 14.6912 32.5956C14.7051 32.3193 14.6803 32.1443 14.6373 32.0211C14.813 32.0393 14.9901 32.035 15.1637 32.008C15.1017 32.2092 15.0375 32.4367 14.969 32.7144C12.7375 35.0378 15.3999 32.4126 15.6375 31.8928C15.6353 31.9088 15.6324 31.9227 15.647 31.9504C15.7301 31.86 15.7505 31.8279 15.7141 31.8578C15.6791 31.8512 15.663 31.8585 15.6492 31.8666C15.6623 31.8607 15.6762 31.8549 15.6893 31.8491C15.7753 31.8082 15.8577 31.7616 15.9371 31.7084C15.7265 31.9409 15.5595 32.2004 15.4429 32.4921C15.577 32.7181 16.7865 31.2884 16.6501 31.1893C16.4795 31.1769 16.3651 31.2483 16.3082 31.4051C16.3111 31.3898 16.3199 31.3657 16.325 31.346C16.3658 31.2943 16.4037 31.2396 16.4394 31.1805C16.6326 31.1149 16.7879 30.6535 16.8827 29.9981C16.9388 29.869 16.995 29.7393 17.0504 29.6088C17.0584 29.4243 17.1174 29.3485 17.1539 29.366C17.4586 28.6399 17.6919 28.0027 17.5279 27.9947C17.4484 28.3038 17.3179 28.5889 17.1379 28.8528C17.0846 28.8316 17.568 27.5325 17.2807 26.7087C18.3801 27.106 21.8933 28.2039 21.4201 27.3648ZM13.847 21.9066L13.7559 22.094C13.6764 22.137 13.6538 22.1115 13.847 21.9066ZM20.9733 26.8181C20.9616 26.8064 20.9499 26.7947 20.9383 26.7838C20.9645 26.7306 20.9849 26.6708 20.9988 26.5994C20.9878 26.6898 20.9798 26.759 20.9733 26.8181ZM15.1812 29.0882C15.195 29.1225 15.2059 29.1568 15.2191 29.1903C15.16 29.565 15.1134 29.9128 15.0769 30.1759C15.0682 29.81 15.1061 29.4462 15.1812 29.0882ZM14.4215 28.7449C14.4543 28.5495 14.5032 28.3468 14.5637 28.1412C14.5921 28.045 14.6285 27.951 14.6665 27.8584C14.6737 27.8759 14.681 27.8941 14.6876 27.9123C14.5374 28.4423 14.4448 28.9942 14.3982 29.3602C14.3829 29.159 14.3865 28.9519 14.4215 28.7449ZM16.5787 28.0742C16.5845 28.1143 16.5845 28.1719 16.5809 28.2418C16.575 28.2105 16.5692 28.1799 16.5634 28.1493C16.5685 28.1237 16.5743 28.0982 16.5787 28.0742ZM20.1706 26.0934C20.1903 26.0453 20.2034 26.0139 20.1706 26.0934V26.0934ZM20.9011 26.3814C20.9616 26.2873 20.9725 26.3303 20.9339 26.5082C20.9339 26.5082 20.772 26.4944 20.9011 26.3814ZM20.4637 25.9097C20.4381 25.9002 20.2457 25.7952 20.1509 25.7675C20.2712 25.75 20.5307 25.691 20.4637 25.9097ZM20.0357 25.8886C20.0591 25.8703 20.027 25.9279 20 25.9527C19.9854 25.9418 20.0357 25.8886 20.0357 25.8886ZM14.4689 32.0743C14.4689 32.0743 14.4128 32.0211 14.3792 31.9788C14.423 31.989 14.4667 31.9985 14.5104 32.0058C14.501 32.0248 14.4878 32.0474 14.4689 32.0743ZM17.291 27.3663C17.291 27.3663 17.3106 27.3554 17.3289 27.3459C17.3194 27.351 17.3128 27.3546 17.291 27.3663ZM17.0606 26.7678C16.9935 26.7743 17.046 26.6963 17.0948 26.6394C17.1415 26.6584 17.1954 26.6781 17.2632 26.7036C17.253 26.7357 17.1874 26.7554 17.0606 26.7678Z" fill="#F45540"/>
<path d="M57.5769 24.1534C55.9322 16.1844 51.0958 8.36415 43.9798 4.21163C40.568 2.22066 36.4388 0.467359 32.4853 0.0168213C31.9473 -0.0451458 29.2047 0.0576461 26.5517 0.433094C25.7688 0.34634 25.0981 0.300412 24.9712 0.310618C23.9032 0.395185 23.1793 0.629929 22.6019 0.941952C22.9671 0.920081 23.3331 0.898947 23.6983 0.877076C23.6284 0.939044 23.5627 0.990804 23.4979 1.04038C23.2084 1.12276 22.938 1.20951 22.6901 1.30283C22.634 1.28023 22.5837 1.2445 22.5377 1.19711C22.4955 1.15337 22.4597 1.10307 22.4284 1.04329C22.0274 1.28168 21.6906 1.55652 21.3494 1.8423C20.1932 2.21993 19.0588 2.67266 17.9573 3.20558C17.9201 3.14143 17.9048 3.05394 17.9529 2.91397C17.256 3.269 13.7435 5.39119 13.8981 5.48742C14.1139 5.38609 14.3224 5.26872 14.5352 5.1601C14.4317 5.22863 14.3275 5.29205 14.2247 5.36203C12.3664 6.38996 9.40581 8.11046 9.14774 9.32939C9.21772 9.37459 9.27823 9.4125 9.34312 9.45405C9.30521 9.49269 9.2673 9.53206 9.22866 9.57216C9.19658 9.51311 9.15867 9.46571 9.12878 9.40302C9.00631 9.63412 8.86415 9.86959 8.7147 10.1051C7.24134 11.6856 5.91889 13.4105 4.77213 15.2389C3.87689 16.4505 3.04726 17.7452 2.47497 19.1581C1.93987 20.4769 -0.191801 25.7755 0.227389 27.5324C0.0400294 28.9525 -0.0350605 30.3807 0.0152423 31.8023C0.0196164 31.943 0.035655 32.0815 0.0429453 32.2222C-0.0700536 32.8696 0.178545 34.3707 0.46651 35.7303C1.2801 40.0184 3.1362 44.0142 5.7359 47.4756C6.25934 48.4955 7.37985 49.6335 8.31665 50.496C9.77834 52.0007 11.3917 53.3647 13.1209 54.5581C13.328 54.7972 13.5292 55.0509 13.7129 55.3476C14.4441 56.5527 15.4319 56.3231 16.3942 56.533C21.4478 59.191 27.202 60.4807 32.9664 59.8362C50.0497 57.9262 60.9588 40.5404 57.5769 24.1534ZM53.2931 43.1C53.3325 43.022 53.3748 42.9469 53.42 42.8747C53.3821 42.9491 53.3405 43.022 53.2931 43.1ZM48.1761 10.1277C48.2147 10.1692 48.2519 10.2115 48.2913 10.2523C48.2315 10.2727 48.1717 10.2902 48.1119 10.3201C48.1367 10.248 48.1564 10.1896 48.1761 10.1277ZM29.1011 58.0975C28.2876 57.7833 26.1945 57.5733 25.4152 57.6922C25.0193 57.62 24.6249 57.542 24.2342 57.4516C23.8602 56.7546 23.2449 56.2312 22.6085 57.0244C22.3176 56.9391 22.0267 56.8552 21.7373 56.7597C20.7516 56.1022 19.1762 55.2237 18.523 55.4789C18.1198 55.2908 17.7211 55.0932 17.3267 54.8862C16.5524 54.3671 15.6419 53.6833 15.4305 53.5309C14.9136 53.1649 14.5345 53.0468 14.2072 53.006C12.6558 51.9358 11.205 50.719 9.88041 49.3784C10.0036 49.0875 9.28333 48.6348 9.15503 48.4379C9.11785 48.3986 9.04859 48.3935 8.96256 48.4073C8.85686 48.2899 8.75115 48.1726 8.64762 48.0537C8.72199 48.0814 8.79343 48.1048 8.87654 48.1427C8.69939 47.9517 8.5113 47.8037 8.31519 47.6725C5.40565 44.2242 3.29804 40.111 2.39551 35.6239C2.24023 34.8511 2.13743 34.0754 2.06016 33.3005C2.16076 33.1444 2.17534 32.9899 2.01641 32.8594C1.8604 30.9464 1.93841 29.0349 2.21544 27.1504C2.29199 26.9609 2.36926 26.8559 2.44508 26.8799C2.50486 26.3193 2.53985 25.7346 2.5887 25.112C3.55539 20.8254 5.47491 16.6976 8.21386 13.2399C8.96111 12.2958 9.79292 11.4093 10.7436 10.6912C10.643 10.6752 10.554 10.6387 10.4607 10.611C10.5956 10.4718 10.7253 10.326 10.8624 10.1889C11.3778 10.2137 11.7693 9.77483 12.8891 8.87302C13.9666 8.00476 15.0609 7.76709 14.5228 7.10076C14.6621 7.00089 14.8042 6.90611 14.9457 6.80915C14.996 6.89444 15.0477 6.98411 15.1039 7.07743C16.0224 6.3258 17.003 5.89933 17.4878 5.23227C17.74 5.09303 17.9981 4.96252 18.2547 4.83057C18.2533 4.86556 18.2584 4.89473 18.2496 4.93702C18.5186 4.78975 18.7876 4.64175 19.0566 4.49449C19.0377 4.47772 19.0187 4.46096 19.0005 4.44492C19.0887 4.40118 19.1777 4.35744 19.271 4.31151C19.2724 4.33338 19.2797 4.35087 19.2805 4.37347C20.3776 3.72756 21.5142 3.33243 22.6639 3.0328C24.2021 2.8972 27.6467 3.05758 28.5019 2.85273C30.1014 2.46707 31.4778 3.29307 33.5941 2.40293C33.721 2.35117 33.4454 2.26149 33.1509 2.18567C34.1803 2.30305 35.222 2.51811 36.2573 2.81409C35.3591 3.85587 37.5855 3.73339 38.9233 3.75599C39.2142 3.87774 39.5021 4.00459 39.7894 4.13654C39.6611 4.33411 39.3797 4.5499 39.3636 4.56521C39.8652 5.04126 41.4064 5.29643 42.6304 5.64563C43.2005 5.99264 43.748 6.35497 44.2729 6.7275C44.2758 7.5163 45.6748 8.09442 46.032 8.21909C47.197 8.62078 49.3345 13.6058 50.9005 13.4097C51.1731 13.7881 51.4392 14.1723 51.6958 14.5638C51.7534 15.0887 51.7673 15.6602 52.1252 16.3317C52.2018 15.8921 52.3519 15.8367 52.5262 15.9023C52.6355 16.0889 52.7383 16.2785 52.8433 16.4665C52.2535 17.1249 53.4768 18.1987 53.6183 19.0502C53.7167 18.8752 53.8136 18.7003 53.9113 18.5253C54.017 18.7484 54.1118 18.9751 54.211 19.2011C54.0469 19.188 53.8771 19.1953 53.6963 19.2521C53.9908 19.9192 54.2656 20.5943 54.5215 21.2766C54.6717 21.117 54.8124 21.0383 54.948 21.0164C55.0041 21.168 55.0566 21.3211 55.1091 21.4742C54.9589 21.5442 54.7956 21.5807 54.6185 21.577C54.7468 22.6866 54.9866 23.1561 55.6311 23.1553C55.7098 23.4404 55.7937 23.7225 55.8622 24.0047C55.6916 23.9449 55.5042 23.8887 55.2768 23.8363C55.6034 25.2856 55.8928 26.4017 56.4265 27.313C56.5008 28.0194 56.5489 28.7295 56.5621 29.4395C55.9329 29.764 55.3708 30.1904 56.1123 31.1243C56.2107 30.9114 56.3594 30.7613 56.5584 30.6709C56.5387 31.3766 56.4862 32.0808 56.4126 32.7836C55.7944 33.7058 55.5239 34.8642 55.2535 36.1976C55.4605 36.2479 55.6391 36.2902 55.8053 36.3266C55.7725 36.4688 55.7412 36.6124 55.7047 36.7538C55.6391 36.7291 55.5771 36.705 55.5021 36.6802C55.5611 36.8246 55.5939 36.966 55.6114 37.106C55.4663 37.6549 55.3016 38.1973 55.1244 38.7368C54.948 39.0124 54.7512 39.2755 54.5667 39.5205C54.6702 39.5212 54.7694 39.5125 54.8671 39.4964C54.6987 39.9659 54.5157 40.4296 54.3232 40.8918C54.2496 40.7686 54.1395 40.6396 53.9762 40.4989C53.4528 42.0721 52.855 43.8086 51.978 45.2149C51.9976 45.2368 52.0195 45.2725 52.0428 45.3141C51.8219 45.6676 51.5945 46.0168 51.359 46.3617C51.3809 46.2334 51.4049 46.1058 51.4348 45.9789C49.9666 48.0967 48.4874 49.9127 46.6101 51.666C46.6254 51.6843 46.6437 51.6959 46.6597 51.7127C45.2002 53.0089 43.608 54.1425 41.905 55.0852C41.8729 55.0225 41.8496 54.9766 41.8445 54.9627C41.2759 55.2827 39.9549 55.8579 39.8069 55.9928C39.8411 56.0278 39.8776 56.0475 39.9126 56.0774C39.5466 56.2385 39.1763 56.3923 38.8016 56.5359C38.0959 56.6132 37.3041 56.7962 37.1066 56.837C37.3187 56.8436 37.4609 56.8917 37.5323 56.9799C36.8055 57.2117 36.0684 57.4151 35.3161 57.577C34.875 57.671 34.4325 57.7527 33.99 57.8227C33.9958 57.7804 33.9914 57.7425 34.0009 57.6995C33.4075 57.7709 32.8148 57.7658 32.2228 57.6805C32.3103 57.7403 32.3905 57.862 32.4554 58.0144C31.3356 58.1194 30.2158 58.142 29.1011 58.0975Z" fill="#F45540"/>
<path d="M37.1306 26.7279C37.2881 26.9415 37.3938 27.1544 37.5002 27.3206C37.3515 27.5437 37.3464 27.6946 37.5753 27.7186C38.0864 27.7733 39.1449 27.3825 40.3609 26.7468C40.3638 26.8212 40.4222 26.9517 40.4819 26.8999C40.5177 26.8686 40.4812 26.7527 40.4309 26.7097C40.4951 26.6754 40.5629 26.6389 40.6285 26.6032C40.6336 26.7636 40.6409 26.9364 40.6525 27.1143C40.6299 27.1799 40.6117 27.2411 40.6015 27.2936C40.3981 28.3084 40.5374 29.3998 41.0637 30.2994C41.079 30.3234 41.1177 30.3686 41.168 30.4211C41.4581 31.4534 41.8554 32.1139 42.3395 31.6933C41.7905 32.3844 42.5742 31.5533 42.3329 32.0818C42.4022 31.9302 42.451 31.8136 42.4904 31.7137C42.9198 32.0097 43.3886 32.0498 43.8267 31.9164C43.8325 32.1154 43.8442 32.3319 43.8639 32.5863C43.8697 32.5688 43.9958 32.1336 44.0658 31.8252C44.1395 31.7902 44.2116 31.7523 44.2831 31.7093C44.2459 31.8646 44.224 32.025 44.2197 32.189C44.3319 32.2721 44.606 31.7494 44.7985 31.2785C45.163 30.8782 45.4123 30.3541 45.4415 29.8146C45.4626 29.4289 45.4437 29.0403 45.4021 28.6525C45.4043 28.6722 45.4145 28.689 45.4437 28.6933C45.7914 28.7575 45.5749 28.3733 45.4852 28.4739C45.4852 28.4739 45.4036 28.5767 45.4021 28.6438C45.3795 28.4425 45.3496 28.2413 45.3139 28.0401C45.4116 27.5735 45.4575 27.2389 45.3657 27.244C45.3409 27.4073 45.3023 27.5663 45.2512 27.7223C45.2221 27.5816 45.1914 27.4416 45.1557 27.3009C45.1834 26.7789 45.1477 26.1417 44.867 25.7452C44.8605 25.7576 44.8488 25.7663 44.7577 25.7998C44.7285 25.7918 44.7052 25.7845 44.6848 25.778C44.6746 25.7495 44.6644 25.7204 44.6534 25.6912C44.7037 25.6817 44.7774 25.681 44.8277 25.6905C44.7591 25.6052 44.6746 25.5381 44.5783 25.4842C44.5025 25.2844 44.4267 25.0869 44.3494 24.8907C44.4136 24.9082 44.4617 24.9301 44.504 24.9556C44.4806 24.9009 44.4551 24.8222 44.4493 24.7938C44.3363 24.6086 44.208 24.414 44.1227 24.2871C45.9132 22.8371 47.1255 21.2864 46.2551 20.4182C45.6077 19.773 44.3939 20.8024 43.3091 21.9477C43.0087 21.6451 43.1261 21.9958 43.2333 22.0293C42.6384 22.6643 42.0902 23.3182 41.7016 23.7389C41.6302 23.6252 41.5055 23.5355 41.375 23.7381C41.3458 23.7855 41.3706 23.916 41.3998 24.0451C41.3845 24.0589 41.3655 24.0793 41.3509 24.0917C41.3203 24.1172 41.2336 24.1829 41.1184 24.2682C40.9689 24.22 40.829 24.1675 40.8414 24.1843C41.0389 24.4497 40.0693 24.6093 39.8273 24.5794C39.6771 24.6968 39.5444 24.8273 39.3921 24.9512C39.3818 24.933 39.3716 24.9148 39.3578 24.9039C39.3366 24.8871 39.3308 24.9367 39.3396 24.9928C38.7563 25.4448 37.9267 25.7933 37.5389 26.2052C37.5432 26.219 37.5469 26.2285 37.552 26.2467L37.5002 26.2701C37.3311 26.445 37.2669 26.6579 37.3865 26.9036C36.7894 25.923 37.5615 27.3162 37.1306 26.7279ZM41.609 31.207L41.6622 31.3091C41.6229 31.3003 41.3597 31.2369 41.609 31.207ZM43.3937 30.2884C43.3499 30.2075 43.3295 30.1091 43.304 30.0129C43.3857 30.1434 43.4761 30.252 43.5737 30.3329C43.5242 30.4167 43.4651 30.4204 43.3937 30.2884ZM45.0712 26.6244C45.0712 26.6244 45.0901 26.6098 45.1054 26.5996C45.0981 26.6054 45.0916 26.6098 45.0712 26.6244ZM44.851 25.8407C45.0478 25.9245 45.0274 25.993 44.7839 26.0317C44.7672 26.0112 44.7642 25.9989 44.7591 25.9857C44.7766 25.9311 44.8342 25.8509 44.851 25.8407ZM38.4924 26.3116C38.483 26.3196 38.4742 26.3269 38.464 26.3364C38.4545 26.3058 38.4698 26.3029 38.4924 26.3116ZM38.378 25.9588C38.0842 25.6227 38.5661 26.6207 38.378 25.9588V25.9588ZM38.2387 26.0557C38.4676 26.5033 38.254 26.168 38.2431 26.1366C38.2212 26.0776 38.2198 26.0513 38.2387 26.0557ZM38.0609 26.1126C38.0922 25.9136 38.6331 26.8365 38.0609 26.1126V26.1126ZM37.6016 27.0042C37.6081 27.1186 37.5717 27.0939 37.4944 26.9298C37.5017 26.9306 37.6409 26.8278 37.6016 27.0042Z" fill="#F45540"/>
<path d="M38.5267 43.4754C38.4939 43.5082 38.4721 43.5425 38.448 43.576C38.3722 43.3726 38.2876 43.1656 38.1936 42.9578C38.3241 42.9527 38.5296 42.7099 38.8665 43.3522C38.2781 42.2426 38.4305 43.1605 38.1593 42.8798C38.0667 42.6808 37.9632 42.4796 37.8546 42.2791C37.6752 41.9488 37.4952 41.6507 37.2991 41.3547C37.2385 41.1644 37.065 40.9377 36.8376 40.7015C34.7723 37.9516 31.4392 35.6646 28.3393 36.4192C28.0368 36.4411 27.762 36.4899 27.5367 36.5752C27.743 36.4768 27.9493 36.3784 28.1571 36.2836C28.1338 36.1589 25.397 37.6345 24.9516 37.7555C25.0638 38.0799 24.8298 38.3547 24.8911 37.7577C24.6228 38.0631 24.1059 38.9547 23.5445 40.0621C22.9577 40.875 22.4758 41.7571 22.1215 42.6589C22.0544 42.8302 21.9932 43.0037 21.9356 43.1794C21.8758 43.21 21.8736 43.2494 21.902 43.2866C21.8299 43.5119 21.7657 43.7393 21.7125 43.9711C21.6243 43.9136 21.5871 43.9281 21.6833 44.1068C21.6411 44.3043 21.6083 44.5026 21.5813 44.7024C21.1256 46.1728 21.0659 47.2262 21.8831 47.0338C21.7176 47.1453 21.5813 47.278 21.4974 47.4595C21.827 47.3298 21.9472 47.3239 21.8685 47.4377C21.9137 47.3888 21.964 47.3407 22.0114 47.2926C22.042 47.3159 22.0639 47.3516 22.0858 47.3859C22.0661 47.504 22.0406 47.4748 22.0114 47.2926C22.0362 47.4676 22.0471 47.6287 22.0544 47.7737C21.7876 47.8809 21.7213 47.9786 21.9596 48.053C21.9968 48.0639 22.0355 48.069 22.0734 48.0814C22.096 48.3351 22.1499 48.529 22.354 48.661C22.2768 48.6099 23.363 48.5246 24.474 48.47C25.2206 48.5115 25.9715 48.5006 26.7238 48.4634C27.1022 48.4444 27.4645 48.4255 27.8268 48.4051C27.1846 48.8797 27.7189 48.6923 28.3116 48.3781C28.9422 48.3431 29.5714 48.3147 30.1969 48.3183C30.2924 48.392 30.3485 48.4474 30.3194 48.4619C30.4127 48.4182 30.487 48.373 30.5534 48.3293C31.1446 48.3548 32.3424 48.4153 33.6408 48.4182C33.5949 48.4503 33.5548 48.5028 33.5555 48.6048C33.5577 48.8848 33.7808 48.5297 33.791 48.4182C33.9623 48.4175 34.1344 48.4167 34.3064 48.4138C34.0243 48.6056 34.337 48.4911 34.4077 48.4124C34.8269 48.4058 35.2454 48.3912 35.6471 48.365C35.6631 48.5093 35.6762 48.6325 35.6865 48.6274C35.7324 48.6048 35.7528 48.4867 35.7637 48.3562C36.0058 48.3402 36.2412 48.3191 36.4658 48.2928C36.5015 48.2892 36.5372 48.2841 36.5729 48.279C36.6123 48.3701 36.7472 48.3504 36.9797 48.2214C37.9975 48.053 38.6725 47.7526 38.5318 47.2365C38.6674 46.993 38.7659 46.6124 38.8103 46.1619C39.0407 45.6217 38.9022 43.3712 38.5267 43.4754ZM23.3973 48.3621C23.5511 48.3847 23.7057 48.4102 23.8602 48.4255C23.675 48.4824 23.4439 48.5144 23.3973 48.3621ZM34.6213 41.8344L34.7679 41.8074C34.6629 41.6981 34.5477 41.5996 34.4231 41.5114C34.8313 41.9904 33.5526 41.7396 33.2471 41.7367C33.2428 41.7221 33.5818 41.6507 33.7261 41.5836H33.0598C33.0073 41.604 32.9344 41.6222 32.8454 41.6375C32.8549 41.6186 32.8608 41.6018 32.8659 41.5836H32.7441C32.731 41.5953 32.723 41.5982 32.7084 41.6135C32.7091 41.6419 32.7113 41.6485 32.7128 41.6587C32.6894 41.6616 32.6625 41.6645 32.6384 41.6667C32.6348 41.6543 32.5786 41.6069 32.532 41.5836C32.5145 41.5836 32.4962 41.5836 32.4722 41.5872C32.4656 41.6288 32.4634 41.6609 32.4678 41.6842C32.3519 41.6951 32.228 41.7024 32.0989 41.7097C32.0479 41.6959 31.9655 41.6857 31.843 41.7207C31.3254 41.7374 30.7867 41.7294 30.4929 41.7053C30.7225 41.7615 30.9522 41.8169 31.1869 41.8468C31.1869 41.8468 30.5432 41.8169 29.7901 41.7826C29.8725 41.76 29.6006 41.6951 29.3695 41.7651C28.5274 41.7309 27.6708 41.7097 27.4842 41.7637C27.63 41.7345 27.751 41.7768 27.8458 41.8891C27.8181 42.0429 26.0276 41.7535 26.0509 41.7053C26.3856 41.6405 26.7224 41.6259 27.0614 41.6623C27.0388 41.6281 26.9914 41.604 26.936 41.5836C26.8725 41.5836 26.8098 41.5836 26.7508 41.5923C26.7989 41.6025 26.7588 41.6018 26.6414 41.5836C26.2762 41.5836 25.9117 41.5836 25.561 41.561C25.615 41.4677 25.674 41.3889 25.7294 41.3007C25.6631 41.3292 25.5807 41.3736 25.4728 41.4444C25.4313 41.4597 25.6018 41.023 25.8738 40.5178C25.8738 40.5178 25.9394 40.4383 25.9306 40.4164C26.371 39.6233 27.0337 38.7229 27.5134 39.1137C27.7299 38.034 30.6992 38.3715 31.3072 38.5793C30.5942 38.5676 33.1254 39.8369 33.0496 39.9185C32.8979 39.8186 32.7478 39.7158 32.5998 39.6109C33.4002 40.111 34.1489 41.1819 34.8473 41.8409C34.7715 41.8358 34.6964 41.8344 34.6213 41.8344Z" fill="#F45540"/>
</svg>
