<svg width="58" height="60" viewBox="0 0 58 60" fill="none" xmlns="http://www.w3.org/2000/svg">
<path d="M16.7985 27.4479C16.7183 27.7563 16.5863 28.0421 16.407 28.3053C16.3487 28.2819 16.9392 26.7131 16.4413 25.9316C16.4398 25.9403 16.4267 25.9505 16.4041 25.9614C16.4325 25.9578 16.434 25.9622 16.3275 25.9913C15.9579 25.8769 16.3421 25.8638 16.4303 25.9104C16.356 25.7989 16.2575 25.7048 16.1307 25.6348C16.1044 25.6771 16.0848 25.7238 16.0629 25.7697C16.0038 25.4934 15.9302 25.2441 15.8413 25.0261C15.99 25.0589 16.0957 25.1034 16.165 25.1588C16.1416 25.0771 16.1205 24.916 16.1416 24.9977C16.1445 25.0144 16.1598 25.0327 16.1715 25.0509C16.0184 24.7126 15.7895 24.3022 15.8063 24.3241C16.3399 24.4903 14.6121 23.0439 13.7118 24.1207C13.7555 24.0558 13.7993 23.988 13.8445 23.9231C13.8233 23.8968 13.7599 24.0004 13.6732 24.1673C13.6185 24.2409 13.5652 24.3226 13.5171 24.4174C13.5572 24.3554 13.5988 24.2949 13.6389 24.2337C13.3094 24.8781 12.6941 26.2472 12.5169 25.6888C12.4805 25.828 12.382 26.307 12.2916 26.8735C12.2683 26.8406 12.2399 26.8159 12.2093 26.8326C12.1772 26.8509 12.2166 26.9821 12.2698 27.0149C12.2049 27.4436 12.1531 27.9087 12.1393 28.314C12.0328 28.7733 12.0037 29.2362 12.0868 29.6831C12.0044 30.1009 12.4688 30.8095 12.9594 31.357C12.9886 31.3482 13.0651 31.4474 13.0651 31.4474C13.5011 31.9351 13.9494 32.2624 13.9604 32.0481C13.9742 31.7725 13.9487 31.5975 13.9072 31.4736C14.0821 31.4918 14.26 31.4882 14.4328 31.4612C14.3708 31.6617 14.3067 31.8899 14.2374 32.1669C11.9993 34.4925 14.6661 31.8673 14.9059 31.346C14.9045 31.3613 14.9016 31.3759 14.9161 31.4029C14.9985 31.3125 15.0197 31.2804 14.9847 31.3103C14.9482 31.3045 14.9329 31.311 14.919 31.3198C14.9322 31.3132 14.9453 31.3081 14.9584 31.3023C15.0452 31.2629 15.1268 31.2148 15.2063 31.1616C14.9956 31.3941 14.8287 31.6537 14.712 31.9453C14.8461 32.1706 16.0563 30.7409 15.9193 30.6425C15.748 30.6294 15.6342 30.7008 15.5766 30.8583C15.5796 30.843 15.5897 30.8189 15.5941 30.7993C15.6357 30.7468 15.6736 30.6921 15.7086 30.6338C15.9018 30.566 16.0571 30.1045 16.1511 29.4513C16.2072 29.3223 16.2626 29.1925 16.3181 29.062C16.3253 28.8775 16.3844 28.8017 16.4216 28.82C16.7278 28.0931 16.9618 27.4559 16.7985 27.4479ZM14.5436 23.9894C14.5013 24.0164 14.4576 23.9829 14.408 23.8917C14.4408 23.8742 14.6092 23.9632 14.5436 23.9894ZM13.7388 31.5268C13.7388 31.5268 13.6826 31.4736 13.6491 31.4313C13.6936 31.4415 13.7373 31.4517 13.781 31.459C13.7708 31.478 13.7563 31.4998 13.7388 31.5268ZM13.668 28.8127C13.652 28.6144 13.6556 28.4095 13.6899 28.2061C13.7234 28.0071 13.7723 27.8022 13.8335 27.593C13.8612 27.4975 13.8991 27.4035 13.9363 27.3109C13.9429 27.3284 13.9494 27.3473 13.9567 27.3648C13.808 27.8955 13.7132 28.4467 13.668 28.8127ZM14.3453 29.6284C14.3395 29.2632 14.3759 28.8994 14.451 28.5415C14.4641 28.5765 14.4751 28.61 14.4882 28.6435C14.4291 29.0182 14.3832 29.366 14.3453 29.6284ZM14.0982 24.7637C14.1893 24.4939 14.2629 24.2738 14.2411 24.2905C14.3519 24.203 14.5312 24.2191 14.7273 24.2934C14.5392 24.37 14.33 24.5267 14.0982 24.7637ZM15.4228 24.3911C15.4104 24.3809 15.398 24.3693 15.3834 24.3598C15.4257 24.292 15.5395 24.2643 15.4228 24.3911ZM15.834 27.5996C15.8376 27.5755 15.8427 27.55 15.8486 27.5259C15.8544 27.566 15.8544 27.6236 15.8515 27.6943C15.8456 27.6623 15.8391 27.6309 15.834 27.5996ZM16.5615 26.8195C16.4536 26.167 16.7307 26.7262 16.5615 26.8195V26.8195ZM16.3304 26.221C16.2335 26.2305 16.3909 26.054 16.4172 26.0402C16.6024 26.1379 16.5739 26.1976 16.3304 26.221Z" fill="#FF8806"/>
<path d="M46.1906 28.1708C46.1906 28.1708 46.109 28.2758 46.1075 28.3407C46.0856 28.1395 46.0557 27.9383 46.02 27.7371C46.1184 27.2697 46.1636 26.9359 46.0711 26.9395C46.0477 27.1028 46.0076 27.2625 45.958 27.417C45.9282 27.277 45.8975 27.1363 45.8626 26.9971C45.8859 26.5575 45.8538 26.0472 45.6803 25.6564C45.6628 25.6856 45.6037 25.7104 45.4915 25.7279C45.4747 25.7082 45.4725 25.6951 45.4667 25.6819C45.4842 25.6287 45.5418 25.5478 45.5586 25.5369C45.5994 25.5536 45.6249 25.5704 45.646 25.5857C45.6205 25.5376 45.603 25.4829 45.5731 25.4406C45.5665 25.453 45.5556 25.461 45.4645 25.4953C45.4353 25.4873 45.4127 25.48 45.3916 25.4727C45.3799 25.4435 45.369 25.4144 45.3581 25.3852C45.4105 25.3743 45.4827 25.3736 45.533 25.3838C45.4645 25.2999 45.3799 25.2321 45.2844 25.1804C45.2086 24.9792 45.1335 24.7816 45.0562 24.5869C45.1204 24.6037 45.1685 24.6256 45.2094 24.6511C45.186 24.5964 45.162 24.5191 45.1561 24.49C44.9564 24.1634 44.7041 23.8018 44.742 23.8484C45.3048 23.9848 43.4086 22.6054 42.5433 23.5933C42.6009 23.508 42.6512 23.4183 42.7153 23.3367C42.6891 23.3039 42.6199 23.4227 42.5229 23.6108C42.4624 23.6859 42.4033 23.7704 42.3545 23.874C42.3989 23.7945 42.4558 23.7245 42.5047 23.648C42.1693 24.323 41.5518 25.7957 41.3922 25.1877C41.3207 25.472 41.3134 26.08 41.3594 26.8119C41.3368 26.8768 41.3178 26.938 41.3091 26.9898C41.1049 28.0046 41.2449 29.0952 41.7705 29.9956C41.7844 30.0196 41.8252 30.0648 41.8748 30.1173C42.1642 31.1496 42.5637 31.8101 43.0456 31.3895C42.4974 32.0806 43.2789 31.2502 43.039 31.778C43.109 31.6264 43.1579 31.5098 43.198 31.4092C43.6281 31.7059 44.0968 31.7452 44.535 31.6118C44.5423 31.8101 44.5525 32.0259 44.5722 32.2818C44.578 32.2636 44.7034 31.8291 44.7727 31.5207C44.847 31.4864 44.9185 31.4485 44.9892 31.4048C44.952 31.5608 44.9316 31.7204 44.9272 31.8845C45.038 31.9676 45.3121 31.4456 45.5053 30.9747C45.8699 30.5737 46.1199 30.0495 46.1491 29.51C46.1687 29.1244 46.152 28.7358 46.109 28.3465C46.1104 28.3669 46.1213 28.3837 46.152 28.3888C46.4968 28.4544 46.281 28.0695 46.1906 28.1708ZM42.3159 30.9054L42.3691 31.0082C42.3297 30.998 42.0665 30.9346 42.3159 30.9054ZM42.3749 25.0659C42.3603 25.0535 42.3472 25.0346 42.3399 25.0069C42.3778 24.9996 42.3989 25.0039 42.4164 25.0112C42.4033 25.0295 42.388 25.0477 42.3749 25.0659ZM43.4407 23.4635C43.3919 23.4788 43.3503 23.4365 43.3139 23.3388C43.3503 23.3279 43.5166 23.4533 43.4407 23.4635ZM42.7372 23.8477C42.6599 24.4944 42.8181 23.5029 42.7372 23.8477V23.8477ZM42.883 24.4783C43.0004 24.0992 43.1163 23.7099 43.0959 23.7245C43.222 23.6341 43.4546 23.7041 43.7105 23.8506C43.4378 23.9789 43.1557 24.2027 42.883 24.4783ZM44.1012 29.9861C44.0567 29.9059 44.0364 29.8068 44.0123 29.7105C44.0925 29.841 44.1836 29.9504 44.282 30.0306C44.231 30.1151 44.1719 30.1188 44.1012 29.9861ZM45.7773 26.3227C45.6103 25.6674 45.9493 26.201 45.7773 26.3227V26.3227Z" fill="#FF8806"/>
<path d="M20.5793 16.1606C20.4378 15.9725 20.2432 15.8712 20.007 15.8406C20.0288 15.7713 20.0514 15.6992 20.0755 15.6175C20.0638 15.627 19.8539 15.7269 19.7292 15.8362C19.633 15.8428 19.5324 15.8588 19.4296 15.8814C19.4653 15.7502 19.8634 15.791 19.7117 15.5461C19.5214 15.2494 19.1343 15.6139 18.9047 15.6117C18.5358 15.608 19.1343 15.8851 19.103 15.8734C19.1015 15.9099 19.0964 15.9456 19.084 15.9791C18.9134 16.0374 18.7356 16.1089 18.5497 16.1956C18.5555 16.1512 18.5584 16.1096 18.5467 16.1067C18.5467 16.1067 18.5205 16.1614 18.5081 16.2153C17.8359 16.5368 17.0785 17.0289 16.3188 17.5881C16.2613 17.4802 16.1599 17.3941 16.0316 17.5494C16.0017 17.5866 16.0083 17.6952 16.0207 17.809C15.9332 17.8753 15.8464 17.9424 15.7604 18.0094C15.627 17.9504 15.4994 17.8819 15.4994 17.8819C15.6591 18.1764 14.7478 18.1582 14.5283 18.0853C14.4919 18.067 14.4839 18.0597 14.4846 18.0517C14.3796 18.1757 14.2491 18.2799 14.1048 18.3725C14.0975 18.3506 14.088 18.3288 14.0742 18.3142C14.0552 18.293 14.045 18.3455 14.0508 18.406C13.4764 18.7538 12.7073 18.9222 12.3187 19.2459C12.3216 19.2641 12.3238 19.2794 12.3267 19.3042L12.2793 19.3173C12.2793 19.3173 12.2793 19.2954 12.2808 19.2787C12.1065 19.4398 12.0234 19.6395 12.1036 19.918C11.6881 18.8507 12.2108 20.3584 11.8995 19.6993C12.1182 20.1637 12.1714 20.6113 12.4492 20.7098C12.3726 20.6835 12.5972 20.5457 12.934 20.3795C12.2348 20.9999 11.769 21.4235 11.7333 21.4009C13.5179 22.5236 22.1897 18.3266 20.5793 16.1606ZM12.2866 20.0544C12.2779 20.1674 12.248 20.1375 12.1991 19.9625C12.1991 19.9625 12.342 19.8889 12.2866 20.0544ZM13.0936 19.1679C12.8633 18.7888 13.2008 19.8597 13.0936 19.1679V19.1679ZM13.0346 19.8058C13.0448 19.8313 13.1264 20.1397 13.0346 19.8058V19.8058ZM12.9595 19.2379C13.1228 19.7139 12.9624 19.3501 12.9537 19.3173C12.942 19.2568 12.9435 19.2298 12.9595 19.2379ZM12.7955 19.2656C12.8582 19.0738 13.2234 20.0376 12.8224 19.3144C12.8326 19.3304 12.7955 19.2656 12.7955 19.2656ZM12.934 19.8109C12.9238 19.8429 12.961 19.9727 12.8961 19.8313L12.934 19.8109ZM13.0083 20.3132C12.9748 20.3037 12.9464 20.2753 12.9267 20.2177C12.9449 20.214 13.0528 20.206 13.1519 20.187C13.1031 20.2301 13.0557 20.2723 13.0083 20.3132ZM13.1775 19.6461C13.0718 19.4529 13.1848 19.5185 13.2249 19.5973L13.1775 19.6461ZM13.2978 19.972C13.289 20.0172 13.2657 19.8517 13.3036 19.8757L13.2978 19.972ZM13.4275 19.6293C13.4122 19.4617 13.4275 19.4522 13.4713 19.6009C13.5106 19.7401 13.4698 19.692 13.4275 19.6293ZM13.6681 19.356C13.7067 19.4026 13.7257 19.4522 13.7242 19.5047C13.6871 19.4886 13.6666 19.4391 13.6681 19.356ZM13.9123 19.1278C13.8547 19.0848 13.9313 19.2174 13.9123 19.1278V19.1278ZM14.0968 19.1649L14.1157 19.2976C14.1063 19.3968 14.0487 19.1416 14.0968 19.1649ZM14.2324 19.2495C14.1784 19.1927 14.1405 19.1088 14.123 18.9944C14.1813 19.0687 14.2178 19.1547 14.2324 19.2495ZM14.3352 19.1642C14.322 19.1402 14.3104 19.1139 14.2914 19.076C14.2922 19.0767 14.36 19.1394 14.3352 19.1642Z" fill="#FF8806"/>
<path d="M55.6759 19.374C53.6507 13.4398 50.3074 8.21338 44.9454 4.803C42.4318 3.20352 39.6615 2.03489 36.8103 1.18704C35.3507 0.752539 33.8664 0.40115 32.369 0.117559C31.3987 -0.0661554 28.7203 0.998221 30.4655 1.28254C30.9576 1.36273 31.4454 1.45313 31.9265 1.55009C33.4465 2.2259 35.899 3.45576 36.6892 3.57824C38.2267 3.81517 39.1745 4.79134 41.2711 4.81831C42.0723 5.24114 42.8495 5.69314 43.5989 6.17794C43.4604 6.54173 44.1063 6.81584 44.8565 7.04694C45.3581 7.41145 45.8465 7.79128 46.3204 8.18568C46.2635 8.20974 46.2161 8.22796 46.2088 8.23161C46.4064 8.59831 47.1099 9.06853 47.8521 9.56353C48.5672 10.2561 49.246 10.9829 49.8795 11.7521C49.6819 12.5781 50.86 13.4339 51.2566 13.8371C51.8777 13.7234 52.5725 20.2992 54.3761 19.6846C54.8777 20.6644 54.2711 21.4394 54.5853 22.7108C55.1146 22.433 55.0738 22.6758 55.3369 22.7808C55.3457 22.8194 55.3552 22.858 55.3647 22.8967C54.422 23.2933 55.38 24.6164 55.2881 25.4862C55.4551 25.3229 55.6213 25.1588 55.7875 24.9955C55.8349 25.2755 55.8808 25.5576 55.9209 25.8412C55.7416 25.7391 55.5374 25.6801 55.3056 25.6866C55.4281 26.3763 55.5075 27.0725 55.544 27.7717C55.7802 27.628 55.9741 27.6069 56.1316 27.6827C56.1433 27.8132 56.1578 27.943 56.1673 28.0735C55.977 28.1303 55.7809 28.1325 55.5775 28.072C55.0468 29.8603 55.2378 30.4333 56.1491 29.7947C56.1833 29.802 56.2118 29.794 56.2431 29.7947C56.2475 30.0929 56.2519 30.391 56.246 30.6892C56.0864 30.5762 55.8947 30.4581 55.6548 30.3349C55.6169 30.9415 55.0526 32.904 56.1462 32.5796C55.415 33.3749 55.5885 33.9778 55.934 34.4357C55.8648 34.9001 55.786 35.3623 55.6942 35.8223C55.0315 36.006 54.3797 36.2889 54.8842 37.3212C55.03 37.1309 55.2174 37.0208 55.439 36.98C55.283 37.6295 55.0993 38.2696 54.9017 38.9046C54.1362 39.6606 53.7163 40.6995 53.1783 41.9162C53.3693 42.003 53.529 42.0751 53.6784 42.1393C53.6223 42.2669 53.5632 42.3937 53.5042 42.5206C53.4459 42.4841 53.3883 42.4477 53.3197 42.4097C53.3146 42.6518 53.284 42.8792 53.2352 43.095C53.0325 43.5084 52.8196 43.9159 52.5987 44.3183C52.4106 44.5276 52.1876 44.7186 51.9229 44.8855C52.0388 44.9067 52.1518 44.9125 52.2634 44.911C52.0126 45.3455 51.7531 45.7749 51.4789 46.1956C51.4454 46.0483 51.3645 45.8887 51.2209 45.7071C50.322 47.0201 49.6681 48.6327 48.4841 49.7175C48.5096 49.762 48.5359 49.8458 48.5643 49.9501C48.2654 50.2752 47.9592 50.5938 47.6436 50.9051C47.75 50.6784 47.8433 50.4728 47.8542 50.3437C46.1731 52.011 44.4111 53.6214 42.2619 54.6698C42.3093 54.7558 42.3698 54.8265 42.4259 54.9031C42.2546 55.0022 42.0818 55.0948 41.9076 55.1896C41.2507 55.5475 40.583 55.877 39.8955 56.1745C39.2897 56.2554 38.6911 56.3895 38.3128 56.7978C37.9657 56.9203 37.6151 57.0325 37.2615 57.1397C37.2375 57.0406 37.2185 56.9414 37.1908 56.843C36.5602 57.1011 35.2917 57.3059 35.0919 57.4299C35.151 57.5159 35.2159 57.5866 35.2822 57.6478C35.019 57.7032 34.7551 57.7543 34.489 57.8017C33.7615 57.6726 32.6453 57.7003 32.4099 57.7207C32.6774 57.7791 32.7999 57.8877 32.7999 58.04C31.6298 58.164 30.4634 58.207 29.3064 58.1735C29.3195 58.1195 29.3253 58.067 29.3487 58.0116C28.78 57.9744 28.2253 57.8709 27.6814 57.7003C27.7609 57.7761 27.8192 57.9205 27.8564 58.0911C26.7847 57.9992 25.7232 57.8432 24.6764 57.6245C23.9553 57.2177 22.0234 56.6979 21.274 56.6855C20.9037 56.5572 20.5384 56.4231 20.1739 56.2802C19.9304 55.5621 19.4332 54.9723 18.7144 55.662C18.4629 55.5468 18.2143 55.4287 17.9664 55.3069C17.112 54.5327 15.6765 53.4297 15.043 53.6499C14.8148 53.5055 14.5961 53.3568 14.3752 53.2066C13.6732 52.6044 12.6649 51.5845 12.4594 51.3848C11.9024 50.8424 11.5036 50.7221 11.1362 50.6572C10.8125 50.3641 10.4954 50.0623 10.1833 49.7554C10.2825 49.6672 10.0259 49.4463 9.61178 49.178C8.76174 48.2937 7.96857 47.354 7.23079 46.3698C7.41305 46.2911 7.59166 46.3756 7.71705 46.7912C8.37973 46.3982 7.80526 46.24 7.09519 46.1876C6.84951 45.8507 6.60748 45.5088 6.37273 45.1611C6.54405 45.1975 6.74452 45.2865 6.9749 45.4286C6.69422 45.0255 6.33409 44.7784 5.95135 44.5123C5.42572 43.6841 4.93582 42.8311 4.49404 41.9497C4.13973 41.2411 3.83572 40.5223 3.55359 39.802C3.13804 37.2978 2.78592 34.1091 1.93515 32.939C1.69895 30.3517 1.85423 27.7498 2.3558 25.1873C2.49066 24.8621 2.61461 24.6726 2.71595 24.7178C2.84426 23.5987 3.02066 22.624 3.24739 21.7273C3.75625 20.1351 4.36061 18.5539 5.14868 17.047C5.7319 15.9316 6.48208 14.7775 7.34306 13.3924C7.28984 13.4091 7.25485 13.4084 7.21184 13.415C7.30515 13.2721 7.40503 13.1314 7.50126 12.9907C7.50564 13.0424 7.50782 13.1008 7.50636 13.1671C8.55105 11.8308 9.6045 10.3195 10.9897 9.29379C10.8402 9.26974 10.7039 9.226 10.5726 9.17424C10.7148 9.02551 10.8628 8.8819 11.0093 8.73682C11.7872 8.8644 12.2115 8.26951 13.5048 7.19202C14.4831 6.37551 15.2041 6.38571 14.5422 5.81562C14.6734 5.72595 14.7981 5.62753 14.9307 5.5415C15 5.6669 15.0729 5.80177 15.1538 5.94976C16.1832 5.15148 17.2862 4.82925 17.6814 4.02951C17.8556 3.94785 18.0306 3.86693 18.207 3.78966C18.2478 3.85819 18.2609 3.94931 18.2252 4.08054C18.4847 3.94931 18.745 3.81736 19.0038 3.68541C18.9491 3.63 18.893 3.57532 18.8383 3.51992C18.9601 3.46962 19.0811 3.41785 19.2028 3.36974C19.2123 3.43681 19.2225 3.50315 19.2196 3.57751C22.3952 2.18434 25.802 2.34473 28.8369 0.963228C29.2123 0.779513 28.9113 0.611837 28.3463 0.46749C28.8114 0.312937 29.1183 0.207958 29.0884 0.209416C28.6094 0.234931 28.1341 0.275028 27.6617 0.323144C26.5077 0.116829 25.0008 -0.0122075 24.8061 0.000914962C23.846 0.0687143 23.168 0.25826 22.6103 0.510503C22.9376 0.508316 23.2628 0.5054 23.5916 0.501755C23.0696 0.918757 22.6992 0.998221 22.4805 0.747437C22.447 0.708798 22.4178 0.666514 22.3938 0.61694C21.4985 1.07477 20.8869 1.69808 19.7999 2.22663C19.5105 2.34108 19.2203 2.45773 18.9353 2.58093C18.8478 2.61155 18.7661 2.6429 18.6728 2.67133C18.5584 2.74934 18.4148 2.81058 18.2755 2.87473C18.6203 2.47522 17.8221 2.69466 18.0466 2.1304C17.3657 2.43513 13.9028 4.29196 14.0639 4.39839C14.5203 4.195 14.9774 3.98722 15.4294 3.77435C14.123 4.44359 9.78236 6.54902 9.46888 8.00342C9.71092 8.15725 9.92453 8.28337 10.1177 8.38908C10.023 8.47729 9.92745 8.56258 9.8356 8.65153C9.69052 8.48604 9.55783 8.30086 9.4514 8.07341C8.42493 10.0651 7.13528 9.83546 6.30857 12.3258C6.24368 12.5161 6.09425 12.8653 5.89595 13.2867C5.0984 14.4312 4.37081 15.6319 3.72198 16.8859C3.65054 16.9471 3.58639 16.9959 3.52733 17.0149C2.74946 17.2861 0.200803 24.6988 0.665921 25.4665C0.638947 25.4227 0.738828 25.231 0.870781 24.9875C0.673944 26.0184 0.534688 27.0507 0.457412 28.08C0.337123 28.5918 0.246011 28.9789 0.214663 29.1029C-0.243165 31.0355 0.119888 33.4624 0.481484 35.3732C0.622915 35.2792 0.733723 35.1662 0.823393 35.0408C1.02387 36.1533 1.28777 37.2519 1.61729 38.333C1.62458 38.3659 1.63116 38.3979 1.63772 38.4307C1.63626 38.4176 1.63625 38.4038 1.63625 38.3906C1.72082 38.6691 1.80684 38.9454 1.90015 39.221C1.8761 39.2523 1.85131 39.2822 1.83381 39.3026C2.14292 40.5471 2.55993 41.6778 3.11764 42.2399C3.37425 42.7867 3.64689 43.3261 3.93559 43.8591C4.12659 45.5373 6.49886 48.032 7.26579 48.8667C7.53188 49.1941 7.80308 49.4813 8.07282 49.7525C8.61959 50.37 9.19333 50.9678 9.79186 51.5452C10.09 51.9228 10.3634 52.3398 10.5931 52.8494C11.2382 54.4051 12.5782 53.8853 13.5821 54.696C13.5303 54.653 13.4902 54.6224 13.4413 54.583C23.1366 61.4687 36.4202 61.5751 46.055 54.3862C56.8672 46.3166 59.9043 31.766 55.6759 19.374ZM52.2699 16.1262C52.4055 15.9272 52.4996 15.7894 52.5718 15.6903C52.6578 15.8463 52.7402 16.0067 52.8269 16.1649C52.649 16.1124 52.4646 16.0949 52.2699 16.1262ZM20.152 3.0045C20.1652 3.11677 20.2257 3.21737 20.1353 3.16488C20.0791 3.12697 20.0412 3.09781 19.9975 3.06282C20.0485 3.04386 20.1003 3.02345 20.152 3.0045ZM16.6629 3.63656C16.6629 3.6526 16.6585 3.66135 16.6578 3.67593C16.4588 3.78164 16.2612 3.88662 16.0644 3.99597C15.8982 3.94275 15.7181 3.85381 15.5526 3.75175C15.9229 3.71384 16.294 3.6752 16.6629 3.63656ZM14.4423 4.9838C14.2615 5.10117 14.0822 5.22073 13.9028 5.34248C13.8445 5.30165 13.7884 5.26375 13.7206 5.21928C14.0406 4.9787 14.263 4.92183 14.4423 4.9838ZM0.513544 33.0636C0.547079 33.0892 0.550012 33.1176 0.553657 33.1468C0.541264 33.1191 0.526666 33.0906 0.513544 33.0636ZM50.2192 47.9751C50.1769 47.9817 50.1419 47.9868 50.1011 47.9941C50.2214 47.857 50.3541 47.7331 50.4868 47.6157C50.3978 47.736 50.3089 47.8563 50.2192 47.9751Z" fill="#FF8806"/>
<path d="M36.7293 16.1286C36.7264 16.103 36.7716 16.1235 36.8467 16.1716C36.8044 16.2722 36.8343 16.4399 36.9757 16.7089C37.9738 18.6277 39.7213 20.1032 41.6451 21.0385C42.7212 21.562 48.8253 22.3858 45.6169 20.1294C45.5608 20.0893 45.4981 20.0573 45.439 20.0201C45.4507 20.0048 45.4623 19.9953 45.4718 19.972C45.6016 19.633 44.6976 19.3348 44.6823 19.3778C44.648 19.4741 44.648 19.5433 44.6808 19.5943C44.586 19.5484 44.4964 19.4981 44.3987 19.4551C44.4082 19.4529 44.4111 19.4507 44.3797 19.4179C44.3192 19.4216 44.2623 19.4004 44.2091 19.3778C43.8767 19.2371 43.5698 19.1197 43.2578 19.0075C43.1499 18.9346 43.0755 18.8981 43.0595 18.9346C42.5491 18.7523 42.0344 18.5708 41.5372 18.3645C41.6298 18.2559 41.7115 18.0707 41.4483 18.024C41.3907 18.0138 41.2617 18.1086 41.1472 18.1968C41.0583 18.156 40.973 18.1108 40.8877 18.0678C40.8673 17.9008 40.8578 17.7178 40.852 17.7266C40.6836 18.0102 40.2097 17.1995 40.1528 16.9596C40.147 16.9123 40.1514 16.8999 40.1594 16.8977C39.9932 16.8634 39.8321 16.7934 39.6768 16.7045C39.6921 16.687 39.7067 16.668 39.7132 16.6498C39.7234 16.6221 39.6695 16.6374 39.6177 16.6695C39.0141 16.2991 38.487 15.6321 38.0037 15.3915C37.9876 15.4024 37.9745 15.4127 37.9505 15.4272L37.9155 15.385C37.9235 15.382 37.9373 15.3762 37.9563 15.3689C37.7252 15.2669 37.5036 15.2676 37.2878 15.463C38.0613 14.6093 36.94 15.7502 37.3906 15.1706C37.0661 15.5862 36.6892 15.8173 36.7293 16.1286ZM38.1196 16.4078L38.0532 16.3793C38.1808 16.1985 38.1713 16.3349 38.1196 16.4078ZM38.4491 16.1045C37.8761 16.4974 38.6904 15.7203 38.4491 16.1045V16.1045ZM38.3266 16.0003C37.9701 16.3538 38.226 16.0476 38.2523 16.0287C38.3011 15.99 38.3252 15.9813 38.3266 16.0003ZM38.2246 15.8523C37.6916 16.6206 38.4287 15.8231 38.2246 15.8523V15.8523ZM37.7507 16.1847L37.7893 16.2109C37.7711 16.2131 37.7405 16.235 37.723 16.2437C37.7142 16.2299 37.7266 16.2131 37.7507 16.1847ZM37.29 15.573C37.29 15.573 37.4248 15.6809 37.2477 15.6962C37.1412 15.7363 37.1551 15.6933 37.29 15.573Z" fill="#FF8806"/>
<path d="M37.9104 43.9411C37.7675 44.1175 37.7384 44.3121 37.8193 44.525C37.7354 44.3442 37.3585 42.9911 36.9342 41.6884C36.76 41.6016 36.6864 41.4033 36.7133 41.0884C36.7279 41.1095 36.7411 41.1321 36.7556 41.1525C36.3481 39.962 35.9311 38.9647 35.7044 39.1842C35.9989 39.583 36.2169 40.0204 36.3598 40.4971C36.1447 40.5482 35.528 39.4393 34.7063 38.6352C34.5292 38.5652 34.2004 38.3895 34.1683 38.1869C34.1049 38.1446 34.0422 38.1096 33.9788 38.0739C33.9802 38.1125 33.9591 38.1614 33.9015 38.2343C33.8388 38.3123 33.7287 38.044 33.7331 38.0119C33.7819 38.0032 33.8177 38.0039 33.8541 38.0039C33.7805 37.9689 33.7076 37.9405 33.6318 37.9157C33.6376 37.9346 33.6347 37.9543 33.5997 38.0316C33.5013 38.0629 33.4342 38.0761 33.3883 38.079C33.362 38.0637 33.3394 38.0462 33.3125 38.0309C33.3292 37.9842 33.4131 37.9142 33.4896 37.8778C33.3234 37.8384 33.1535 37.8194 32.9815 37.845C32.8138 37.7786 32.6264 37.6882 32.4267 37.6109C32.7103 37.5927 32.9866 37.5636 32.9895 37.5512C32.0571 37.1568 32.2233 37.2195 31.0364 37.0226C31.2391 36.9781 31.4454 36.9614 31.6517 36.9745C30.8265 36.844 28.7517 36.7769 27.7165 37.0182C27.8965 36.9665 28.0759 36.9155 28.2559 36.8644C28.2151 36.5728 24.3476 38.6381 24.9957 37.6999C24.4045 38.0513 23.9255 38.4603 23.5049 38.905C23.5319 38.8423 23.5362 38.7869 23.483 38.7898C23.4196 38.7934 23.2935 39.0304 23.3591 39.0588C22.6337 39.8709 22.0957 40.8026 21.5052 41.7737C21.4527 41.8597 21.3265 42.1812 21.1807 42.6113C21.1939 42.604 21.2004 42.5975 21.2194 42.5902C21.3091 42.771 21.1968 42.8111 21.1217 42.7856C21.0517 42.997 20.9795 43.2281 20.9066 43.4701C20.938 43.4745 20.9657 43.5634 20.8935 43.6188C20.8731 43.6145 20.8746 43.6028 20.8731 43.5868C20.7149 44.1343 20.5691 44.7204 20.4904 45.2249C20.5137 45.2402 20.4911 45.4217 20.4911 45.4217C20.4874 45.4144 20.4787 45.3977 20.47 45.3794C20.373 46.1019 20.4298 46.6144 20.8323 46.4963C20.0631 46.9563 21.0393 46.5612 20.6318 47.0227C20.8082 46.82 20.9744 46.61 21.1319 46.3935C21.0641 46.5473 21.0911 46.6756 21.2136 46.777C21.1953 46.7792 21.2682 46.3993 21.3812 45.8591C21.4206 46.1034 21.4651 46.3607 21.5117 46.5801C21.4986 46.6647 21.4826 46.7485 21.4702 46.8346C20.9744 46.9133 20.7594 47.0453 21.4075 47.2771C21.5022 47.4717 21.4221 47.5527 21.1669 47.5191C21.1727 47.4951 21.608 47.9259 21.5343 47.8836C21.6823 47.9704 25.7955 48.1884 25.9486 47.9799C25.9996 47.9099 25.2852 47.7859 25.821 47.7138C25.8961 47.7167 25.9705 47.7196 26.0477 47.7218C25.8611 48.0652 29.0455 47.7772 27.1485 47.8603C27.2426 47.818 27.3315 47.7889 27.4197 47.7553C28.2858 47.7706 29.1825 47.7743 30.0683 47.767C29.9567 47.7845 29.8569 47.8187 29.8569 47.8931C29.8598 48.2788 30.2768 47.8632 30.357 47.7648C31.2384 47.7553 32.1023 47.7342 32.9035 47.6992C32.9122 47.8107 32.9946 47.7604 33.0573 47.6926C33.7564 47.6606 34.4038 47.6175 34.9732 47.5643C35.0016 47.6081 35.0177 47.6401 35.0162 47.6554C35.0169 47.6372 35.0257 47.6015 35.0373 47.5585C35.3428 47.5293 35.622 47.4965 35.8757 47.4608C35.5542 47.8435 35.9975 47.8676 37.2186 47.5257C37.2186 47.5257 37.1457 47.5118 37.0378 47.4936C37.2171 47.2931 37.411 46.871 37.5189 46.4744C37.6261 46.9782 37.7449 47.4389 37.7617 47.4994C37.7289 47.159 37.6276 46.5998 37.5926 46.1085C37.6028 46.0173 37.6071 45.932 37.5998 45.8599C37.5955 45.8227 37.5882 45.7862 37.5845 45.749C37.5875 45.663 37.5947 45.5836 37.6057 45.5114C37.5925 45.5165 37.5736 45.5179 37.5532 45.5179C37.5495 45.4873 37.5437 45.4567 37.5393 45.4261L37.6042 45.3517C37.6173 45.367 37.6225 45.3831 37.6297 45.3984C37.6553 45.3094 37.6903 45.2336 37.7435 45.1892C37.7435 45.7082 37.8047 46.2185 37.9294 46.7216C38.054 46.7726 38.2035 43.944 37.9104 43.9411ZM20.8884 46.2287C20.8928 46.2112 20.8928 45.7264 20.9846 46.0261C21.059 46.1354 21.0269 46.201 20.8884 46.2287ZM21.0801 43.204C21.0408 43.1683 21.0342 43.1289 21.059 43.0881C21.4177 43.204 21.0991 43.2208 21.0801 43.204ZM21.2281 43.9928L21.2529 43.8616C21.2602 43.9243 21.3557 43.9586 21.2281 43.9928ZM21.406 43.5875C21.3907 43.5846 21.3718 43.5773 21.347 43.562C21.3754 43.4818 21.406 43.4679 21.4286 43.4774C21.4199 43.5139 21.4148 43.551 21.406 43.5875ZM21.4592 42.9707C21.2719 43.0283 21.4228 42.7856 21.5066 42.7754C21.4848 42.838 21.4731 42.9051 21.4592 42.9707ZM23.0573 40.0269L23.0551 40.1771C23.0004 40.3397 22.9588 40.094 23.0573 40.0269ZM22.9931 47.5723C22.9457 47.7721 23.0055 47.6248 22.9931 47.5723V47.5723ZM22.8269 47.5359C22.7912 47.5534 22.7766 47.6511 22.7518 47.5337L22.8269 47.5359ZM22.6643 40.3652C22.5593 40.4352 22.6833 40.4556 22.6643 40.3652V40.3652ZM21.6429 47.3886C21.5766 47.4426 21.5482 47.4192 21.5525 47.3259C21.5657 47.3303 21.5751 47.3339 21.5897 47.3383C21.6174 47.3471 21.6575 47.3558 21.6925 47.3646C21.6823 47.3726 21.6655 47.3799 21.6429 47.3886ZM21.842 42.2424C21.8274 42.2505 21.8121 42.2585 21.7961 42.2658C21.7414 42.0835 21.7691 42.0339 21.8573 42.1141C21.8733 42.1309 21.8784 42.144 21.8828 42.1571C21.8697 42.187 21.8544 42.214 21.842 42.2424ZM22.0869 41.711C21.6568 41.7175 21.9936 41.7416 22.0869 41.711V41.711ZM22.1657 41.2816C22.2327 41.2517 22.2641 41.2765 22.2612 41.3516C22.1941 41.423 22.1613 41.4011 22.1657 41.2816ZM22.5746 47.8005C22.6235 47.802 23.0157 47.9011 23.1958 47.8938C23.004 47.9383 22.5644 47.9667 22.5746 47.8005ZM23.1863 39.7207C23.3 39.7164 23.3467 39.7769 23.3423 39.887C23.2257 39.9205 23.171 39.8658 23.1863 39.7207ZM23.3204 47.7794C23.2774 47.8078 23.3394 47.6875 23.3875 47.716L23.3204 47.7794ZM34.6291 38.9749C34.6633 38.8306 34.8172 39.1237 34.6262 38.9881C34.648 39.0034 34.6364 38.9553 34.6291 38.9749ZM32.1752 37.3106C32.2495 37.3412 32.3924 37.3077 32.4639 37.4411C32.3771 37.4236 32.0308 37.2508 32.1752 37.3106ZM28.9689 37.1298C28.9514 37.1312 28.9339 37.1298 28.9142 37.1312C28.8967 37.1174 28.8873 37.1094 28.8836 37.0897C28.8967 37.0875 28.9339 37.1065 28.9689 37.1298ZM23.6288 39.5873C23.6099 39.5749 23.5851 39.5567 23.5523 39.5188L23.6725 39.4896C23.6755 39.513 23.6755 39.5275 23.6755 39.5429C23.6602 39.5589 23.6441 39.5713 23.6288 39.5873ZM23.7549 47.6124C23.7746 47.6132 23.7965 47.6146 23.8154 47.6161C23.7965 47.6569 23.7768 47.6438 23.7549 47.6124ZM34.4147 42.4218C34.7063 42.4218 34.726 42.3758 34.5241 42.2191C34.4213 42.2424 34.0801 42.2767 33.712 42.2993C33.6653 42.2927 33.4495 42.2701 33.4014 42.2731C33.4619 42.3015 33.5086 42.308 33.5472 42.3088C33.3467 42.3197 33.1455 42.3255 32.9771 42.3248C33.1389 42.2884 33.295 42.2337 33.4459 42.1703H32.8072C32.7526 42.1848 32.6745 42.198 32.5841 42.2104C32.5929 42.1958 32.5987 42.1841 32.6024 42.1703H32.4719C32.4595 42.1819 32.4507 42.1856 32.4398 42.2286C32.4077 42.2322 32.3779 42.2351 32.345 42.2381C32.3261 42.2176 32.286 42.1892 32.2466 42.1703C32.2269 42.1703 32.2058 42.1703 32.1817 42.1739C32.1745 42.2074 32.1744 42.2315 32.1759 42.2526C32.0301 42.265 31.8712 42.2745 31.7035 42.2833C31.6488 42.2767 31.5788 42.2738 31.4957 42.2935C30.9716 42.3153 30.4313 42.3197 30.1098 42.3008C30.3388 42.3511 30.5691 42.4035 30.8031 42.432C30.8031 42.432 30.1186 42.4028 29.3137 42.3693C29.3866 42.3467 29.0877 42.2833 28.8173 42.3467C28.8428 42.3489 28.8566 42.3496 28.8639 42.3518C27.9534 42.3175 27.0268 42.2957 26.8285 42.3489C26.9823 42.3183 27.1128 42.3598 27.2178 42.475C27.1828 42.6492 25.2779 42.3146 25.2903 42.2913C25.6482 42.2249 26.0105 42.2111 26.3736 42.2475C26.3517 42.2147 26.3065 42.1892 26.2489 42.1695C26.179 42.1695 26.1075 42.1695 26.0419 42.1783C26.0936 42.1878 26.0506 42.1878 25.9253 42.1695C25.5323 42.1695 25.1415 42.1695 24.7654 42.1462C24.8281 42.0485 24.8958 41.9669 24.9607 41.8743C24.89 41.902 24.8025 41.9479 24.6844 42.0223C24.6589 42.0303 24.8798 41.5528 25.2079 41.0133C25.2079 41.0133 25.2458 40.9732 25.2414 40.9623C25.7495 40.1385 26.4961 39.2039 26.9984 39.6427C27.3228 38.5733 30.3964 38.9502 31.0561 39.1886C30.3125 39.2338 33.0529 40.4469 32.9618 40.5496C32.7963 40.4483 32.6323 40.3433 32.4704 40.2347C33.1178 40.6123 34.4344 41.8437 34.8813 42.4327C34.7275 42.4356 34.5715 42.4313 34.4147 42.4218ZM36.1214 47.4914L36.0981 47.4294C36.1134 47.4273 36.1243 47.4243 36.1381 47.4222C36.1345 47.4433 36.1316 47.4615 36.1214 47.4914ZM36.3051 47.4783C36.2825 47.4608 36.2533 47.4353 36.2183 47.4061C36.3889 47.3755 36.5428 47.3449 36.6762 47.3106C36.6842 47.3638 36.6944 47.4054 36.7053 47.444C36.4458 47.4112 36.2045 47.3966 36.3051 47.4783ZM36.3182 41.3188C36.3707 41.3662 36.203 41.0775 36.2016 41.1001C35.8473 40.4439 35.4259 39.8469 34.9382 39.3249C36.0878 39.7776 37.2383 42.7061 37.2368 43.2135C37.2368 43.2893 37.1777 43.3221 37.107 43.3433C36.9007 42.6266 36.6361 41.9494 36.3182 41.3188ZM37.4227 44.6978C37.414 44.6511 37.4052 44.6059 37.395 44.5593C37.4023 44.5214 37.3965 44.4762 37.3914 44.4295C37.3476 44.3245 37.3301 44.2093 37.3039 44.0978C37.3243 44.1015 37.3389 44.1022 37.3505 44.1C37.3476 44.0796 37.3447 44.0614 37.3418 44.0417C37.3286 44.0351 37.3111 44.0344 37.2915 44.0409C37.2579 43.89 37.2149 43.7442 37.1741 43.5955C37.2324 43.6021 37.2827 43.6108 37.2856 43.6276C37.2929 43.6655 37.3162 43.8354 37.3418 44.0417C37.3753 44.057 37.3884 44.0912 37.3505 44.1C37.3651 44.2064 37.3775 44.318 37.3914 44.4295C37.4198 44.4317 37.4562 44.4616 37.5014 44.5236C37.4752 44.5651 37.4438 44.5739 37.4081 44.5673C37.4132 44.6125 37.4176 44.6548 37.4227 44.6978Z" fill="#FF8806"/>
</svg>
