<svg width="16" height="16" viewBox="0 0 16 16" fill="none" xmlns="http://www.w3.org/2000/svg">
<path d="M9.85161 0.0659751C9.99981 -0.00811886 10.1714 -0.0203341 10.3286 0.0320146C10.4858 0.0843632 10.6158 0.196991 10.6899 0.345142L12.5241 4.01347C13.6516 4.10014 14.3591 4.32181 14.8158 4.88598C15.1791 5.33514 15.2958 5.89348 15.2533 6.66598H0.00827751C-0.0342225 5.89348 0.0832776 5.33514 0.445778 4.88598C0.902444 4.32098 1.60994 4.10014 2.73744 4.01347L4.57161 0.345142C4.64642 0.198167 4.77629 0.0867183 4.93292 0.0350816C5.08954 -0.016555 5.26023 -0.00419353 5.40778 0.0694723C5.55533 0.143138 5.66779 0.272137 5.72064 0.428357C5.77349 0.584577 5.76246 0.755355 5.68994 0.903475L4.16078 3.96181C4.56244 3.95903 5.003 3.95764 5.48244 3.95764H9.77911C10.2586 3.95709 10.6991 3.95848 11.1008 3.96181L9.57161 0.903475C9.49758 0.755174 9.48548 0.583538 9.53799 0.426321C9.5905 0.269105 9.70331 0.140019 9.85161 0.0659751Z" fill="white"/>
<path fill-rule="evenodd" clip-rule="evenodd" d="M0.592969 10.011C0.439274 9.31715 0.297586 8.62066 0.167969 7.92188H15.093C14.9634 8.62066 14.8217 9.31715 14.668 10.011L14.3105 11.6777C13.9046 13.5719 13.7021 14.5185 13.0146 15.0744C12.3271 15.6302 11.3588 15.6302 9.42214 15.6302H5.8388C3.90214 15.6302 2.9338 15.6302 2.24714 15.0744C1.5588 14.5185 1.35547 13.5719 0.950469 11.6777L0.592969 10.011ZM5.9638 9.17188C5.79804 9.17188 5.63907 9.23772 5.52186 9.35493C5.40465 9.47214 5.3388 9.63111 5.3388 9.79688C5.3388 9.96264 5.40465 10.1216 5.52186 10.2388C5.63907 10.356 5.79804 10.4219 5.9638 10.4219H9.29714C9.4629 10.4219 9.62187 10.356 9.73908 10.2388C9.85629 10.1216 9.92214 9.96264 9.92214 9.79688C9.92214 9.63111 9.85629 9.47214 9.73908 9.35493C9.62187 9.23772 9.4629 9.17188 9.29714 9.17188H5.9638Z" fill="white"/>
</svg>
